<svg width="64" height="64" viewBox="0 0 64 64" fill="none" xmlns="http://www.w3.org/2000/svg">
<path d="M17.6816 5.05H45.9997L58.95 18.0003V57.351C58.95 58.5181 58.0039 59.4643 56.8367 59.4643H17.6816C16.5145 59.4643 15.5684 58.5181 15.5684 57.351V7.16327C15.5684 5.99614 16.5145 5.05 17.6816 5.05Z" fill="#EBEBEB" stroke="#A8A8A8" stroke-width="0.1"/>
<path d="M33.0408 5H37.4106V9.3698H33.0408V5Z" fill="#9BCA4F"/>
<path d="M37.4106 9.3698H41.7804V13.7396H37.4106V9.3698Z" fill="#9BCA4F"/>
<path d="M33.0408 13.7396H37.4106V18.1094H33.0408V13.7396Z" fill="#9BCA4F"/>
<path d="M37.4106 18.1094L41.7804 18.1094V22.4792H37.4106V18.1094Z" fill="#9BCA4F"/>
<path d="M33.0408 22.4792H37.4106V26.849H33.0408V22.4792Z" fill="#9BCA4F"/>
<path d="M41.7804 26.849H37.4106L37.4106 31.2188H41.7804V26.849Z" fill="#9BCA4F"/>
<path d="M37.4106 31.2188H33.0408V35.5886H37.4106V31.2188Z" fill="#9BCA4F"/>
<path d="M41.7804 35.5886H37.4106V39.9584H41.7804V35.5886Z" fill="#9BCA4F"/>
<path d="M37.4106 39.9584H33.0408V44.3282H37.4106V39.9584Z" fill="#9BCA4F"/>
<path d="M41.7804 44.3282H37.4106V48.698H41.7804V44.3282Z" fill="#9BCA4F"/>
<rect x="6" y="32.2572" width="46.5102" height="17.633" rx="3" fill="#84BD5A"/>
<g filter="url(#filter0_d_4_52)">
<path d="M19.8389 38.7366C19.8007 38.3176 19.6306 37.9919 19.3287 37.7595C19.0307 37.5234 18.6046 37.4053 18.0505 37.4053C17.6837 37.4053 17.378 37.4529 17.1334 37.5481C16.8888 37.6434 16.7054 37.7748 16.5831 37.9424C16.4609 38.1062 16.3978 38.2948 16.394 38.5081C16.3863 38.6833 16.4207 38.8376 16.4972 38.9709C16.5774 39.1042 16.692 39.2223 16.8411 39.3252C16.9939 39.4242 17.1773 39.5118 17.3913 39.588C17.6053 39.6642 17.8461 39.7309 18.1136 39.788L19.1224 40.0166C19.7032 40.1423 20.2153 40.3099 20.6586 40.5194C21.1057 40.7289 21.4802 40.9784 21.782 41.268C22.0877 41.5575 22.3189 41.8908 22.4756 42.2679C22.6323 42.645 22.7125 43.0679 22.7163 43.5364C22.7125 44.2754 22.5253 44.9097 22.1546 45.4392C21.7839 45.9687 21.2509 46.3744 20.5554 46.6563C19.8637 46.9382 19.0288 47.0791 18.0505 47.0791C17.0684 47.0791 16.2125 46.9325 15.4826 46.6391C14.7527 46.3458 14.1853 45.9001 13.7802 45.3021C13.3751 44.704 13.1669 43.9478 13.1554 43.0336H15.8724C15.8953 43.4107 15.9966 43.725 16.1762 43.9764C16.3558 44.2278 16.6022 44.4183 16.9156 44.5478C17.2328 44.6773 17.5996 44.7421 18.0161 44.7421C18.3983 44.7421 18.7231 44.6907 18.9906 44.5878C19.2619 44.4849 19.4701 44.3421 19.6153 44.1592C19.7606 43.9764 19.8351 43.7669 19.8389 43.5307C19.8351 43.3098 19.7663 43.1212 19.6325 42.965C19.4988 42.805 19.2924 42.6679 19.0135 42.5536C18.7384 42.4355 18.3868 42.327 17.9588 42.2279L16.7322 41.9422C15.7157 41.7098 14.9151 41.3346 14.3305 40.8165C13.7458 40.2947 13.4554 39.5899 13.4592 38.7024C13.4554 37.9786 13.6503 37.3443 14.0439 36.7996C14.4375 36.2548 14.982 35.8301 15.6775 35.5254C16.373 35.2206 17.1659 35.0682 18.0563 35.0682C18.9657 35.0682 19.7548 35.2225 20.4236 35.5311C21.0961 35.8358 21.6177 36.2644 21.9884 36.8167C22.3591 37.3691 22.5482 38.0091 22.5559 38.7366H19.8389Z" fill="white"/>
<path d="M24.1493 46.9305V35.2282H26.9867V39.9252H31.6124V35.2282H34.444V46.9305H31.6124V42.2279H26.9867V46.9305H24.1493Z" fill="white"/>
<path d="M36.2237 46.9305V35.2282H41.073C41.9519 35.2282 42.7104 35.3997 43.3486 35.7425C43.9906 36.0815 44.4854 36.5558 44.8332 37.1653C45.1809 37.771 45.3548 38.4757 45.3548 39.2795C45.3548 40.0871 45.1771 40.7937 44.8217 41.3994C44.4702 42.0013 43.9676 42.4679 43.3142 42.7993C42.6608 43.1307 41.885 43.2964 40.987 43.2964H37.9949V41.068H40.4597C40.8877 41.068 41.245 40.9937 41.5316 40.8451C41.822 40.6965 42.0417 40.4889 42.1907 40.2223C42.3398 39.9518 42.4143 39.6376 42.4143 39.2795C42.4143 38.9176 42.3398 38.6052 42.1907 38.3424C42.0417 38.0757 41.822 37.87 41.5316 37.7253C41.2411 37.5805 40.8838 37.5081 40.4597 37.5081H39.0611V46.9305H36.2237Z" fill="white"/>
</g>
<g filter="url(#filter1_d_4_52)">
<path d="M46.0204 5V15.546C46.0204 16.9797 47.1826 17.9796 48.6163 17.9796H59L46.0204 5Z" fill="#D9D9D9"/>
<path d="M46.0704 15.546V5.12071L58.8793 17.9296H48.6163C47.2059 17.9296 46.0704 16.9479 46.0704 15.546Z" stroke="#AAAAAA" stroke-width="0.1"/>
</g>
<defs>
<filter id="filter0_d_4_52" x="9.15541" y="35.0682" width="40.1994" height="20.0109" filterUnits="userSpaceOnUse" color-interpolation-filters="sRGB">
<feFlood flood-opacity="0" result="BackgroundImageFix"/>
<feColorMatrix in="SourceAlpha" type="matrix" values="0 0 0 0 0 0 0 0 0 0 0 0 0 0 0 0 0 0 127 0" result="hardAlpha"/>
<feOffset dy="4"/>
<feGaussianBlur stdDeviation="2"/>
<feComposite in2="hardAlpha" operator="out"/>
<feColorMatrix type="matrix" values="0 0 0 0 0 0 0 0 0 0 0 0 0 0 0 0 0 0 0.25 0"/>
<feBlend mode="normal" in2="BackgroundImageFix" result="effect1_dropShadow_4_52"/>
<feBlend mode="normal" in="SourceGraphic" in2="effect1_dropShadow_4_52" result="shape"/>
</filter>
<filter id="filter1_d_4_52" x="40.0204" y="3" width="20.9796" height="20.9796" filterUnits="userSpaceOnUse" color-interpolation-filters="sRGB">
<feFlood flood-opacity="0" result="BackgroundImageFix"/>
<feColorMatrix in="SourceAlpha" type="matrix" values="0 0 0 0 0 0 0 0 0 0 0 0 0 0 0 0 0 0 127 0" result="hardAlpha"/>
<feOffset dx="-2" dy="2"/>
<feGaussianBlur stdDeviation="2"/>
<feComposite in2="hardAlpha" operator="out"/>
<feColorMatrix type="matrix" values="0 0 0 0 0 0 0 0 0 0 0 0 0 0 0 0 0 0 0.25 0"/>
<feBlend mode="normal" in2="BackgroundImageFix" result="effect1_dropShadow_4_52"/>
<feBlend mode="normal" in="SourceGraphic" in2="effect1_dropShadow_4_52" result="shape"/>
</filter>
</defs>
</svg>
