<svg width="365" height="76" viewBox="0 0 365 76" fill="none" xmlns="http://www.w3.org/2000/svg">
<path d="M241.88 5.08529L239.017 2.12375C238.979 2.08447 238.934 2.05333 238.884 2.0321C238.834 2.01086 238.781 1.99996 238.727 2H233.818C233.601 2 233.393 2.08915 233.24 2.24783C233.086 2.40652 233 2.62174 233 2.84615V12.1538C233 12.3783 233.086 12.5935 233.24 12.7522C233.393 12.9109 233.601 13 233.818 13H241.182C241.399 13 241.607 12.9109 241.76 12.7522C241.914 12.5935 242 12.3783 242 12.1538V5.38462C242 5.32904 241.989 5.274 241.969 5.22264C241.948 5.17128 241.918 5.12461 241.88 5.08529ZM239.136 3.44428L240.603 4.96154H239.136V3.44428ZM241.182 12.1538H233.818V2.84615H238.318V5.38462C238.318 5.49682 238.361 5.60443 238.438 5.68378C238.515 5.76312 238.619 5.80769 238.727 5.80769H241.182V12.1538Z" fill="#A3A3A3"/>
<path d="M248.68 7.83V11.7H247.81V7.94C247.51 8.33 247.15 8.75 246.9 8.96L246.33 8.17C247.2 7.47 248.16 6.16 248.66 5.02H246.61V4.2H248.23C248.08 3.85 247.72 3.3 247.47 2.92L248.13 2.52C248.42 2.92 248.79 3.47 248.94 3.79L248.32 4.2H249.14L249.24 4.16L249.72 4.52C249.47 5.25 249.09 6.05 248.68 6.71V6.8C248.75 6.87 248.8 6.97 248.89 7.06C249.12 6.79 249.42 6.36 249.57 6.1L250.15 6.6C250.06 6.7 249.96 6.8 249.86 6.9L249.79 6.98C249.6 7.16 249.42 7.35 249.28 7.49C249.57 7.83 249.91 8.23 250.01 8.36L249.49 9.09C249.33 8.81 248.97 8.25 248.68 7.83ZM251.94 4.2C251.94 4.26 251.94 4.32 251.93 4.38V4.51C251.78 7.66 251.29 10.27 249.81 11.7L249.15 10.97C250.45 9.87 250.92 7.68 251.06 5.1V4.99C251.07 4.93 251.07 4.87 251.07 4.81L251.08 4.69C251.08 4.63 251.08 4.57 251.09 4.5V4.38C251.09 4.32 251.09 4.26 251.09 4.2H249.8V3.32H254.23C254.23 3.32 254.22 3.67 254.22 3.8C254.12 8.56 254.01 10.61 253.69 11.1C253.5 11.42 253.25 11.56 252.96 11.61C252.67 11.65 252.14 11.64 251.56 11.62L251.55 10.75C251.88 10.79 252.31 10.79 252.53 10.79H252.59C252.75 10.79 252.84 10.73 252.92 10.61C253.18 10.27 253.29 8.29 253.38 4.2H251.94ZM262.804 7.14C261.624 9.62 259.194 11.15 255.894 11.69L255.684 10.78C257.204 10.56 258.734 10 259.794 9.32H259.124V6.27H255.634V5.4H256.894V3.23H257.754V5.4H259.214V2.55H260.104V3.45H262.654V4.32H260.104V5.4H263.374V6.27H260.014V9.18C260.854 8.6 261.534 7.69 261.974 6.71L262.804 7.14ZM258.424 6.95C257.954 7.8 257.124 8.82 256.464 9.38L255.874 8.66C256.484 8.22 257.214 7.37 257.604 6.64L258.424 6.95ZM266.928 4.18L266.338 4.8C266.148 4.58 265.848 4.23 265.538 3.89L265.468 3.81C265.298 3.62 265.128 3.43 264.988 3.27L265.528 2.72C265.668 2.86 265.828 3.02 265.988 3.19L266.068 3.26C266.078 3.28 266.088 3.29 266.098 3.3L266.178 3.38C266.468 3.68 266.748 3.97 266.928 4.18ZM268.198 6.61C268.198 8.05 268.038 10.46 267.228 11.72C267.118 11.58 266.758 11.29 266.608 11.21C266.818 10.86 267.028 10.36 267.148 9.93C266.038 11 265.778 11.28 265.698 11.39L265.118 10.88C265.318 10.67 265.648 10.17 265.648 9.63V6.41H264.508V5.53H266.468V9.51L267.038 8.98C267.088 9.15 267.168 9.4 267.238 9.57C267.338 9.11 267.388 8.58 267.418 8.06V7.96C267.438 7.52 267.448 7.1 267.448 6.74V2.94H272.248V10.65C272.248 11.07 272.148 11.39 271.908 11.53C271.668 11.67 271.228 11.7 270.548 11.69L270.488 10.86C270.788 10.87 271.218 10.87 271.338 10.87C271.458 10.87 271.488 10.78 271.488 10.64V3.74H268.198V6.61ZM271.248 6.22V6.91H268.468V6.22H269.488V5.38H268.648V4.71H269.488V3.96H270.148V4.71H271.048V5.38H270.148V6.22H271.248ZM270.988 7.64V10.15H268.608V7.64H270.988ZM269.248 9.47H270.348V8.31H269.248V9.47ZM277.072 4.63C276.352 5.69 275.092 6.71 273.912 7.23L273.522 6.43C274.422 6.1 275.562 5.29 276.242 4.49H273.642V3.7H277.072V2.54H277.922V3.7H281.422V4.49H278.732C279.432 5.27 280.592 6.03 281.502 6.35L281.132 7.16C279.932 6.66 278.672 5.66 277.922 4.63V6.4H277.072V4.63ZM279.992 6.7V9.99H275.022V6.7H279.992ZM275.862 8.02H279.122V7.34H275.862V8.02ZM275.862 9.35H279.122V8.63H275.862V9.35ZM281.322 10.58V11.4H273.762V10.58H281.322ZM284.226 3.66C285.466 3.66 286.186 4.49 286.186 5.48C286.186 6.41 285.656 6.97 284.816 7.17C285.716 7.25 286.386 7.84 286.386 8.94C286.386 10.16 285.536 11.14 284.136 11.14C283.306 11.14 282.666 10.81 282.126 10.16L282.696 9.66C283.146 10.15 283.546 10.35 284.096 10.35C284.886 10.35 285.396 9.82 285.396 8.93C285.396 7.92 284.876 7.58 284.036 7.58H283.586L283.696 6.85H284.006C284.696 6.85 285.246 6.43 285.246 5.56C285.246 4.83 284.816 4.42 284.136 4.42C283.626 4.42 283.216 4.62 282.796 5.05L282.286 4.52C282.846 3.95 283.476 3.66 284.226 3.66ZM289.079 3.66C290.339 3.66 291.069 4.5 291.069 5.59C291.069 6.93 290.369 7.82 288.269 10.19H291.229L291.109 11H287.209V10.24C289.529 7.55 290.069 6.82 290.069 5.64C290.069 4.88 289.649 4.44 289.009 4.44C288.459 4.44 288.089 4.7 287.679 5.21L287.059 4.76C287.589 4.03 288.239 3.66 289.079 3.66ZM294.834 3.77V11H293.864V4.79L292.364 5.81L291.924 5.16L293.974 3.77H294.834ZM299.053 3.77V11H298.083V4.79L296.583 5.81L296.143 5.16L298.193 3.77H299.053ZM302.282 3.66C303.542 3.66 304.272 4.5 304.272 5.59C304.272 6.93 303.572 7.82 301.472 10.19H304.432L304.312 11H300.412V10.24C302.732 7.55 303.272 6.82 303.272 5.64C303.272 4.88 302.852 4.44 302.212 4.44C301.662 4.44 301.292 4.7 300.882 5.21L300.262 4.76C300.792 4.03 301.442 3.66 302.282 3.66ZM307.067 3.66C308.307 3.66 309.027 4.49 309.027 5.48C309.027 6.41 308.497 6.97 307.657 7.17C308.557 7.25 309.227 7.84 309.227 8.94C309.227 10.16 308.377 11.14 306.977 11.14C306.147 11.14 305.507 10.81 304.967 10.16L305.537 9.66C305.987 10.15 306.387 10.35 306.937 10.35C307.727 10.35 308.237 9.82 308.237 8.93C308.237 7.92 307.717 7.58 306.877 7.58H306.427L306.537 6.85H306.847C307.537 6.85 308.087 6.43 308.087 5.56C308.087 4.83 307.657 4.42 306.977 4.42C306.467 4.42 306.057 4.62 305.637 5.05L305.127 4.52C305.687 3.95 306.317 3.66 307.067 3.66ZM314.67 8.44V9.22H313.84V11H312.92V9.22H310.1V8.52L312.03 3.65L312.85 3.96L311.09 8.44H312.93L313.03 6.47H313.84V8.44H314.67ZM319.245 3.77L319.115 4.53H316.585V6.69C316.905 6.5 317.235 6.39 317.635 6.39C318.735 6.39 319.495 7.22 319.495 8.67C319.495 10.13 318.585 11.14 317.185 11.14C316.325 11.14 315.735 10.78 315.215 10.2L315.785 9.68C316.185 10.11 316.585 10.35 317.165 10.35C317.975 10.35 318.485 9.76 318.485 8.66C318.485 7.51 317.985 7.12 317.315 7.12C316.955 7.12 316.695 7.21 316.365 7.4H315.655V3.77H319.245ZM323.056 6.25C324.026 6.25 324.856 7.01 324.856 8.55C324.856 10.18 323.976 11.14 322.746 11.14C321.146 11.14 320.506 9.76 320.506 7.67C320.506 5.19 321.486 3.66 323.056 3.66C323.596 3.66 324.016 3.83 324.386 4.1L324.006 4.71C323.716 4.52 323.416 4.41 323.066 4.41C322.126 4.41 321.556 5.45 321.496 7.18C321.896 6.56 322.426 6.25 323.056 6.25ZM322.746 10.37C323.486 10.37 323.876 9.7 323.876 8.58C323.876 7.4 323.446 6.98 322.856 6.98C322.306 6.98 321.826 7.4 321.496 8.01C321.526 9.63 321.886 10.37 322.746 10.37ZM329.367 3.77V4.49L326.897 11.11L326.027 10.83L328.387 4.55H325.507V3.77H329.367ZM333.173 7.14C334.163 7.59 334.613 8.17 334.613 9.09C334.613 10.31 333.703 11.14 332.313 11.14C330.923 11.14 330.053 10.3 330.053 9.11C330.053 8.18 330.543 7.59 331.413 7.19C330.633 6.78 330.323 6.25 330.323 5.51C330.323 4.31 331.253 3.66 332.333 3.66C333.403 3.66 334.353 4.26 334.353 5.48C334.353 6.2 333.993 6.71 333.173 7.14ZM332.333 4.37C331.693 4.37 331.263 4.71 331.263 5.52C331.263 6.22 331.613 6.5 332.343 6.81L332.573 6.9C333.183 6.52 333.413 6.12 333.413 5.51C333.413 4.75 333.003 4.37 332.333 4.37ZM332.333 10.38C333.143 10.38 333.643 9.95 333.643 9.09C333.643 8.31 333.283 7.97 332.323 7.58L332.023 7.46C331.333 7.81 331.033 8.32 331.033 9.09C331.033 9.97 331.543 10.38 332.333 10.38ZM337.603 3.66C339.053 3.66 339.763 4.73 339.763 6.51C339.763 9.43 338.603 10.5 336.173 11.24L335.963 10.51C337.623 10 338.603 9.22 338.753 7.54C338.413 8.04 337.913 8.36 337.283 8.36C336.283 8.36 335.443 7.49 335.443 6.05C335.443 4.51 336.393 3.66 337.603 3.66ZM337.503 7.62C338.033 7.62 338.443 7.28 338.783 6.71C338.793 5.04 338.423 4.4 337.613 4.4C336.883 4.4 336.423 4.94 336.423 6.06C336.423 7.12 336.873 7.62 337.503 7.62ZM343.097 3.66C344.547 3.66 345.307 4.9 345.307 7.39C345.307 9.91 344.547 11.14 343.097 11.14C341.637 11.14 340.867 9.9 340.867 7.39C340.867 4.88 341.637 3.66 343.097 3.66ZM343.097 4.42C342.287 4.42 341.877 5.19 341.877 7.39C341.877 9.6 342.287 10.37 343.097 10.37C343.897 10.37 344.307 9.61 344.307 7.39C344.307 5.18 343.897 4.42 343.097 4.42ZM347.052 9.75C347.482 9.75 347.752 10.07 347.752 10.44C347.752 10.82 347.482 11.14 347.052 11.14C346.662 11.14 346.372 10.82 346.372 10.44C346.372 10.07 346.662 9.75 347.052 9.75ZM351.067 5.18C351.687 5.18 352.167 5.36 352.637 5.79L352.187 6.38C351.857 6.11 351.547 5.97 351.117 5.97C350.307 5.97 349.797 6.62 349.797 8.19C349.797 9.75 350.327 10.33 351.107 10.33C351.547 10.33 351.847 10.18 352.197 9.91L352.647 10.5C352.217 10.9 351.697 11.14 351.077 11.14C349.657 11.14 348.757 10.13 348.757 8.2C348.757 6.32 349.667 5.18 351.067 5.18ZM355.585 3.68C355.055 3.68 354.805 3.93 354.805 4.47V5.31H356.085L355.975 6.05H354.805V11H353.835V6.05H352.995V5.31H353.835V4.48C353.835 3.55 354.435 2.91 355.495 2.91C355.975 2.91 356.375 3.03 356.765 3.21L356.475 3.89C356.145 3.74 355.855 3.68 355.585 3.68ZM360.799 4.7L361.079 5.54C360.719 5.68 360.249 5.71 359.639 5.71C360.219 6 360.539 6.47 360.539 7.2C360.539 8.32 359.799 9.1 358.559 9.1C358.329 9.1 358.129 9.07 357.929 8.99C357.749 9.12 357.639 9.32 357.639 9.54C357.639 9.83 357.789 10.04 358.339 10.04H359.089C360.229 10.04 360.919 10.71 360.919 11.57C360.919 12.61 360.109 13.29 358.499 13.29C356.799 13.29 356.249 12.67 356.249 11.57H357.119C357.119 12.25 357.409 12.56 358.499 12.56C359.569 12.56 359.949 12.2 359.949 11.64C359.949 11.09 359.569 10.81 358.889 10.81H358.269C357.209 10.81 356.779 10.34 356.779 9.75C356.779 9.37 357.009 9.02 357.369 8.76C356.759 8.42 356.479 7.91 356.479 7.16C356.479 5.97 357.299 5.19 358.539 5.19C359.789 5.2 360.249 4.97 360.799 4.7ZM358.519 5.87C357.809 5.87 357.439 6.32 357.439 7.16C357.439 7.95 357.859 8.44 358.519 8.44C359.209 8.44 359.579 8.05 359.579 7.16C359.579 6.32 359.239 5.87 358.519 5.87Z" fill="#232323"/>
<path d="M241.88 20.0853L239.017 17.1238C238.979 17.0845 238.934 17.0533 238.884 17.0321C238.834 17.0109 238.781 17 238.727 17H233.818C233.601 17 233.393 17.0891 233.24 17.2478C233.086 17.4065 233 17.6217 233 17.8462V27.1538C233 27.3783 233.086 27.5935 233.24 27.7522C233.393 27.9109 233.601 28 233.818 28H241.182C241.399 28 241.607 27.9109 241.76 27.7522C241.914 27.5935 242 27.3783 242 27.1538V20.3846C242 20.329 241.989 20.274 241.969 20.2226C241.948 20.1713 241.918 20.1246 241.88 20.0853ZM239.136 18.4443L240.603 19.9615H239.136V18.4443ZM241.182 27.1538H233.818V17.8462H238.318V20.3846C238.318 20.4968 238.361 20.6044 238.438 20.6838C238.515 20.7631 238.619 20.8077 238.727 20.8077H241.182V27.1538Z" fill="#A3A3A3"/>
<path d="M248.68 22.83V26.7H247.81V22.94C247.51 23.33 247.15 23.75 246.9 23.96L246.33 23.17C247.2 22.47 248.16 21.16 248.66 20.02H246.61V19.2H248.23C248.08 18.85 247.72 18.3 247.47 17.92L248.13 17.52C248.42 17.92 248.79 18.47 248.94 18.79L248.32 19.2H249.14L249.24 19.16L249.72 19.52C249.47 20.25 249.09 21.05 248.68 21.71V21.8C248.75 21.87 248.8 21.97 248.89 22.06C249.12 21.79 249.42 21.36 249.57 21.1L250.15 21.6C250.06 21.7 249.96 21.8 249.86 21.9L249.79 21.98C249.6 22.16 249.42 22.35 249.28 22.49C249.57 22.83 249.91 23.23 250.01 23.36L249.49 24.09C249.33 23.81 248.97 23.25 248.68 22.83ZM251.94 19.2C251.94 19.26 251.94 19.32 251.93 19.38V19.51C251.78 22.66 251.29 25.27 249.81 26.7L249.15 25.97C250.45 24.87 250.92 22.68 251.06 20.1V19.99C251.07 19.93 251.07 19.87 251.07 19.81L251.08 19.69C251.08 19.63 251.08 19.57 251.09 19.5V19.38C251.09 19.32 251.09 19.26 251.09 19.2H249.8V18.32H254.23C254.23 18.32 254.22 18.67 254.22 18.8C254.12 23.56 254.01 25.61 253.69 26.1C253.5 26.42 253.25 26.56 252.96 26.61C252.67 26.65 252.14 26.64 251.56 26.62L251.55 25.75C251.88 25.79 252.31 25.79 252.53 25.79H252.59C252.75 25.79 252.84 25.73 252.92 25.61C253.18 25.27 253.29 23.29 253.38 19.2H251.94ZM262.804 22.14C261.624 24.62 259.194 26.15 255.894 26.69L255.684 25.78C257.204 25.56 258.734 25 259.794 24.32H259.124V21.27H255.634V20.4H256.894V18.23H257.754V20.4H259.214V17.55H260.104V18.45H262.654V19.32H260.104V20.4H263.374V21.27H260.014V24.18C260.854 23.6 261.534 22.69 261.974 21.71L262.804 22.14ZM258.424 21.95C257.954 22.8 257.124 23.82 256.464 24.38L255.874 23.66C256.484 23.22 257.214 22.37 257.604 21.64L258.424 21.95ZM266.928 19.18L266.338 19.8C266.148 19.58 265.848 19.23 265.538 18.89L265.468 18.81C265.298 18.62 265.128 18.43 264.988 18.27L265.528 17.72C265.668 17.86 265.828 18.02 265.988 18.19L266.068 18.26C266.078 18.28 266.088 18.29 266.098 18.3L266.178 18.38C266.468 18.68 266.748 18.97 266.928 19.18ZM268.198 21.61C268.198 23.05 268.038 25.46 267.228 26.72C267.118 26.58 266.758 26.29 266.608 26.21C266.818 25.86 267.028 25.36 267.148 24.93C266.038 26 265.778 26.28 265.698 26.39L265.118 25.88C265.318 25.67 265.648 25.17 265.648 24.63V21.41H264.508V20.53H266.468V24.51L267.038 23.98C267.088 24.15 267.168 24.4 267.238 24.57C267.338 24.11 267.388 23.58 267.418 23.06V22.96C267.438 22.52 267.448 22.1 267.448 21.74V17.94H272.248V25.65C272.248 26.07 272.148 26.39 271.908 26.53C271.668 26.67 271.228 26.7 270.548 26.69L270.488 25.86C270.788 25.87 271.218 25.87 271.338 25.87C271.458 25.87 271.488 25.78 271.488 25.64V18.74H268.198V21.61ZM271.248 21.22V21.91H268.468V21.22H269.488V20.38H268.648V19.71H269.488V18.96H270.148V19.71H271.048V20.38H270.148V21.22H271.248ZM270.988 22.64V25.15H268.608V22.64H270.988ZM269.248 24.47H270.348V23.31H269.248V24.47ZM277.072 19.63C276.352 20.69 275.092 21.71 273.912 22.23L273.522 21.43C274.422 21.1 275.562 20.29 276.242 19.49H273.642V18.7H277.072V17.54H277.922V18.7H281.422V19.49H278.732C279.432 20.27 280.592 21.03 281.502 21.35L281.132 22.16C279.932 21.66 278.672 20.66 277.922 19.63V21.4H277.072V19.63ZM279.992 21.7V24.99H275.022V21.7H279.992ZM275.862 23.02H279.122V22.34H275.862V23.02ZM275.862 24.35H279.122V23.63H275.862V24.35ZM281.322 25.58V26.4H273.762V25.58H281.322ZM284.226 18.66C285.466 18.66 286.186 19.49 286.186 20.48C286.186 21.41 285.656 21.97 284.816 22.17C285.716 22.25 286.386 22.84 286.386 23.94C286.386 25.16 285.536 26.14 284.136 26.14C283.306 26.14 282.666 25.81 282.126 25.16L282.696 24.66C283.146 25.15 283.546 25.35 284.096 25.35C284.886 25.35 285.396 24.82 285.396 23.93C285.396 22.92 284.876 22.58 284.036 22.58H283.586L283.696 21.85H284.006C284.696 21.85 285.246 21.43 285.246 20.56C285.246 19.83 284.816 19.42 284.136 19.42C283.626 19.42 283.216 19.62 282.796 20.05L282.286 19.52C282.846 18.95 283.476 18.66 284.226 18.66ZM289.079 18.66C290.339 18.66 291.069 19.5 291.069 20.59C291.069 21.93 290.369 22.82 288.269 25.19H291.229L291.109 26H287.209V25.24C289.529 22.55 290.069 21.82 290.069 20.64C290.069 19.88 289.649 19.44 289.009 19.44C288.459 19.44 288.089 19.7 287.679 20.21L287.059 19.76C287.589 19.03 288.239 18.66 289.079 18.66ZM294.834 18.77V26H293.864V19.79L292.364 20.81L291.924 20.16L293.974 18.77H294.834ZM299.053 18.77V26H298.083V19.79L296.583 20.81L296.143 20.16L298.193 18.77H299.053ZM302.282 18.66C303.542 18.66 304.272 19.5 304.272 20.59C304.272 21.93 303.572 22.82 301.472 25.19H304.432L304.312 26H300.412V25.24C302.732 22.55 303.272 21.82 303.272 20.64C303.272 19.88 302.852 19.44 302.212 19.44C301.662 19.44 301.292 19.7 300.882 20.21L300.262 19.76C300.792 19.03 301.442 18.66 302.282 18.66ZM307.067 18.66C308.307 18.66 309.027 19.49 309.027 20.48C309.027 21.41 308.497 21.97 307.657 22.17C308.557 22.25 309.227 22.84 309.227 23.94C309.227 25.16 308.377 26.14 306.977 26.14C306.147 26.14 305.507 25.81 304.967 25.16L305.537 24.66C305.987 25.15 306.387 25.35 306.937 25.35C307.727 25.35 308.237 24.82 308.237 23.93C308.237 22.92 307.717 22.58 306.877 22.58H306.427L306.537 21.85H306.847C307.537 21.85 308.087 21.43 308.087 20.56C308.087 19.83 307.657 19.42 306.977 19.42C306.467 19.42 306.057 19.62 305.637 20.05L305.127 19.52C305.687 18.95 306.317 18.66 307.067 18.66ZM314.67 23.44V24.22H313.84V26H312.92V24.22H310.1V23.52L312.03 18.65L312.85 18.96L311.09 23.44H312.93L313.03 21.47H313.84V23.44H314.67ZM319.245 18.77L319.115 19.53H316.585V21.69C316.905 21.5 317.235 21.39 317.635 21.39C318.735 21.39 319.495 22.22 319.495 23.67C319.495 25.13 318.585 26.14 317.185 26.14C316.325 26.14 315.735 25.78 315.215 25.2L315.785 24.68C316.185 25.11 316.585 25.35 317.165 25.35C317.975 25.35 318.485 24.76 318.485 23.66C318.485 22.51 317.985 22.12 317.315 22.12C316.955 22.12 316.695 22.21 316.365 22.4H315.655V18.77H319.245ZM323.056 21.25C324.026 21.25 324.856 22.01 324.856 23.55C324.856 25.18 323.976 26.14 322.746 26.14C321.146 26.14 320.506 24.76 320.506 22.67C320.506 20.19 321.486 18.66 323.056 18.66C323.596 18.66 324.016 18.83 324.386 19.1L324.006 19.71C323.716 19.52 323.416 19.41 323.066 19.41C322.126 19.41 321.556 20.45 321.496 22.18C321.896 21.56 322.426 21.25 323.056 21.25ZM322.746 25.37C323.486 25.37 323.876 24.7 323.876 23.58C323.876 22.4 323.446 21.98 322.856 21.98C322.306 21.98 321.826 22.4 321.496 23.01C321.526 24.63 321.886 25.37 322.746 25.37ZM329.367 18.77V19.49L326.897 26.11L326.027 25.83L328.387 19.55H325.507V18.77H329.367ZM333.173 22.14C334.163 22.59 334.613 23.17 334.613 24.09C334.613 25.31 333.703 26.14 332.313 26.14C330.923 26.14 330.053 25.3 330.053 24.11C330.053 23.18 330.543 22.59 331.413 22.19C330.633 21.78 330.323 21.25 330.323 20.51C330.323 19.31 331.253 18.66 332.333 18.66C333.403 18.66 334.353 19.26 334.353 20.48C334.353 21.2 333.993 21.71 333.173 22.14ZM332.333 19.37C331.693 19.37 331.263 19.71 331.263 20.52C331.263 21.22 331.613 21.5 332.343 21.81L332.573 21.9C333.183 21.52 333.413 21.12 333.413 20.51C333.413 19.75 333.003 19.37 332.333 19.37ZM332.333 25.38C333.143 25.38 333.643 24.95 333.643 24.09C333.643 23.31 333.283 22.97 332.323 22.58L332.023 22.46C331.333 22.81 331.033 23.32 331.033 24.09C331.033 24.97 331.543 25.38 332.333 25.38ZM337.603 18.66C339.053 18.66 339.763 19.73 339.763 21.51C339.763 24.43 338.603 25.5 336.173 26.24L335.963 25.51C337.623 25 338.603 24.22 338.753 22.54C338.413 23.04 337.913 23.36 337.283 23.36C336.283 23.36 335.443 22.49 335.443 21.05C335.443 19.51 336.393 18.66 337.603 18.66ZM337.503 22.62C338.033 22.62 338.443 22.28 338.783 21.71C338.793 20.04 338.423 19.4 337.613 19.4C336.883 19.4 336.423 19.94 336.423 21.06C336.423 22.12 336.873 22.62 337.503 22.62ZM343.097 18.66C344.547 18.66 345.307 19.9 345.307 22.39C345.307 24.91 344.547 26.14 343.097 26.14C341.637 26.14 340.867 24.9 340.867 22.39C340.867 19.88 341.637 18.66 343.097 18.66ZM343.097 19.42C342.287 19.42 341.877 20.19 341.877 22.39C341.877 24.6 342.287 25.37 343.097 25.37C343.897 25.37 344.307 24.61 344.307 22.39C344.307 20.18 343.897 19.42 343.097 19.42ZM347.052 24.75C347.482 24.75 347.752 25.07 347.752 25.44C347.752 25.82 347.482 26.14 347.052 26.14C346.662 26.14 346.372 25.82 346.372 25.44C346.372 25.07 346.662 24.75 347.052 24.75ZM352.147 17.91L353.117 18.02V26H352.257L352.187 25.24C351.867 25.77 351.377 26.14 350.707 26.14C349.467 26.14 348.757 25.01 348.757 23.18C348.757 21.38 349.567 20.18 350.797 20.18C351.417 20.18 351.847 20.48 352.147 20.87V17.91ZM350.937 25.37C351.477 25.37 351.837 25.05 352.147 24.52V21.68C351.867 21.25 351.507 20.95 351.017 20.95C350.277 20.95 349.787 21.63 349.787 23.16C349.787 24.71 350.227 25.37 350.937 25.37ZM357.288 20.18C358.468 20.18 359.168 21.18 359.168 23.15C359.168 25 358.418 26.14 357.188 26.14C356.588 26.14 356.118 25.84 355.778 25.37L355.718 26H354.848V18.03L355.828 17.92V21.02C356.168 20.5 356.658 20.18 357.288 20.18ZM356.958 25.37C357.678 25.37 358.158 24.76 358.158 23.15C358.158 21.47 357.718 20.95 357.038 20.95C356.478 20.95 356.118 21.35 355.828 21.82V24.62C356.088 25.05 356.478 25.37 356.958 25.37ZM362.421 18.68C361.891 18.68 361.641 18.93 361.641 19.47V20.31H362.921L362.811 21.05H361.641V26H360.671V21.05H359.831V20.31H360.671V19.48C360.671 18.55 361.271 17.91 362.331 17.91C362.811 17.91 363.211 18.03 363.601 18.21L363.311 18.89C362.981 18.74 362.691 18.68 362.421 18.68Z" fill="#232323"/>
<path d="M241.88 35.0853L239.017 32.1238C238.979 32.0845 238.934 32.0533 238.884 32.0321C238.834 32.0109 238.781 32 238.727 32H233.818C233.601 32 233.393 32.0891 233.24 32.2478C233.086 32.4065 233 32.6217 233 32.8462V42.1538C233 42.3783 233.086 42.5935 233.24 42.7522C233.393 42.9109 233.601 43 233.818 43H241.182C241.399 43 241.607 42.9109 241.76 42.7522C241.914 42.5935 242 42.3783 242 42.1538V35.3846C242 35.329 241.989 35.274 241.969 35.2226C241.948 35.1713 241.918 35.1246 241.88 35.0853ZM239.136 33.4443L240.603 34.9615H239.136V33.4443ZM241.182 42.1538H233.818V32.8462H238.318V35.3846C238.318 35.4968 238.361 35.6044 238.438 35.6838C238.515 35.7631 238.619 35.8077 238.727 35.8077H241.182V42.1538Z" fill="#A3A3A3"/>
<path d="M248.68 37.83V41.7H247.81V37.94C247.51 38.33 247.15 38.75 246.9 38.96L246.33 38.17C247.2 37.47 248.16 36.16 248.66 35.02H246.61V34.2H248.23C248.08 33.85 247.72 33.3 247.47 32.92L248.13 32.52C248.42 32.92 248.79 33.47 248.94 33.79L248.32 34.2H249.14L249.24 34.16L249.72 34.52C249.47 35.25 249.09 36.05 248.68 36.71V36.8C248.75 36.87 248.8 36.97 248.89 37.06C249.12 36.79 249.42 36.36 249.57 36.1L250.15 36.6C250.06 36.7 249.96 36.8 249.86 36.9L249.79 36.98C249.6 37.16 249.42 37.35 249.28 37.49C249.57 37.83 249.91 38.23 250.01 38.36L249.49 39.09C249.33 38.81 248.97 38.25 248.68 37.83ZM251.94 34.2C251.94 34.26 251.94 34.32 251.93 34.38V34.51C251.78 37.66 251.29 40.27 249.81 41.7L249.15 40.97C250.45 39.87 250.92 37.68 251.06 35.1V34.99C251.07 34.93 251.07 34.87 251.07 34.81L251.08 34.69C251.08 34.63 251.08 34.57 251.09 34.5V34.38C251.09 34.32 251.09 34.26 251.09 34.2H249.8V33.32H254.23C254.23 33.32 254.22 33.67 254.22 33.8C254.12 38.56 254.01 40.61 253.69 41.1C253.5 41.42 253.25 41.56 252.96 41.61C252.67 41.65 252.14 41.64 251.56 41.62L251.55 40.75C251.88 40.79 252.31 40.79 252.53 40.79H252.59C252.75 40.79 252.84 40.73 252.92 40.61C253.18 40.27 253.29 38.29 253.38 34.2H251.94ZM262.804 37.14C261.624 39.62 259.194 41.15 255.894 41.69L255.684 40.78C257.204 40.56 258.734 40 259.794 39.32H259.124V36.27H255.634V35.4H256.894V33.23H257.754V35.4H259.214V32.55H260.104V33.45H262.654V34.32H260.104V35.4H263.374V36.27H260.014V39.18C260.854 38.6 261.534 37.69 261.974 36.71L262.804 37.14ZM258.424 36.95C257.954 37.8 257.124 38.82 256.464 39.38L255.874 38.66C256.484 38.22 257.214 37.37 257.604 36.64L258.424 36.95ZM266.928 34.18L266.338 34.8C266.148 34.58 265.848 34.23 265.538 33.89L265.468 33.81C265.298 33.62 265.128 33.43 264.988 33.27L265.528 32.72C265.668 32.86 265.828 33.02 265.988 33.19L266.068 33.26C266.078 33.28 266.088 33.29 266.098 33.3L266.178 33.38C266.468 33.68 266.748 33.97 266.928 34.18ZM268.198 36.61C268.198 38.05 268.038 40.46 267.228 41.72C267.118 41.58 266.758 41.29 266.608 41.21C266.818 40.86 267.028 40.36 267.148 39.93C266.038 41 265.778 41.28 265.698 41.39L265.118 40.88C265.318 40.67 265.648 40.17 265.648 39.63V36.41H264.508V35.53H266.468V39.51L267.038 38.98C267.088 39.15 267.168 39.4 267.238 39.57C267.338 39.11 267.388 38.58 267.418 38.06V37.96C267.438 37.52 267.448 37.1 267.448 36.74V32.94H272.248V40.65C272.248 41.07 272.148 41.39 271.908 41.53C271.668 41.67 271.228 41.7 270.548 41.69L270.488 40.86C270.788 40.87 271.218 40.87 271.338 40.87C271.458 40.87 271.488 40.78 271.488 40.64V33.74H268.198V36.61ZM271.248 36.22V36.91H268.468V36.22H269.488V35.38H268.648V34.71H269.488V33.96H270.148V34.71H271.048V35.38H270.148V36.22H271.248ZM270.988 37.64V40.15H268.608V37.64H270.988ZM269.248 39.47H270.348V38.31H269.248V39.47ZM277.072 34.63C276.352 35.69 275.092 36.71 273.912 37.23L273.522 36.43C274.422 36.1 275.562 35.29 276.242 34.49H273.642V33.7H277.072V32.54H277.922V33.7H281.422V34.49H278.732C279.432 35.27 280.592 36.03 281.502 36.35L281.132 37.16C279.932 36.66 278.672 35.66 277.922 34.63V36.4H277.072V34.63ZM279.992 36.7V39.99H275.022V36.7H279.992ZM275.862 38.02H279.122V37.34H275.862V38.02ZM275.862 39.35H279.122V38.63H275.862V39.35ZM281.322 40.58V41.4H273.762V40.58H281.322ZM284.226 33.66C285.466 33.66 286.186 34.49 286.186 35.48C286.186 36.41 285.656 36.97 284.816 37.17C285.716 37.25 286.386 37.84 286.386 38.94C286.386 40.16 285.536 41.14 284.136 41.14C283.306 41.14 282.666 40.81 282.126 40.16L282.696 39.66C283.146 40.15 283.546 40.35 284.096 40.35C284.886 40.35 285.396 39.82 285.396 38.93C285.396 37.92 284.876 37.58 284.036 37.58H283.586L283.696 36.85H284.006C284.696 36.85 285.246 36.43 285.246 35.56C285.246 34.83 284.816 34.42 284.136 34.42C283.626 34.42 283.216 34.62 282.796 35.05L282.286 34.52C282.846 33.95 283.476 33.66 284.226 33.66ZM289.079 33.66C290.339 33.66 291.069 34.5 291.069 35.59C291.069 36.93 290.369 37.82 288.269 40.19H291.229L291.109 41H287.209V40.24C289.529 37.55 290.069 36.82 290.069 35.64C290.069 34.88 289.649 34.44 289.009 34.44C288.459 34.44 288.089 34.7 287.679 35.21L287.059 34.76C287.589 34.03 288.239 33.66 289.079 33.66ZM294.834 33.77V41H293.864V34.79L292.364 35.81L291.924 35.16L293.974 33.77H294.834ZM299.053 33.77V41H298.083V34.79L296.583 35.81L296.143 35.16L298.193 33.77H299.053ZM302.282 33.66C303.542 33.66 304.272 34.5 304.272 35.59C304.272 36.93 303.572 37.82 301.472 40.19H304.432L304.312 41H300.412V40.24C302.732 37.55 303.272 36.82 303.272 35.64C303.272 34.88 302.852 34.44 302.212 34.44C301.662 34.44 301.292 34.7 300.882 35.21L300.262 34.76C300.792 34.03 301.442 33.66 302.282 33.66ZM307.067 33.66C308.307 33.66 309.027 34.49 309.027 35.48C309.027 36.41 308.497 36.97 307.657 37.17C308.557 37.25 309.227 37.84 309.227 38.94C309.227 40.16 308.377 41.14 306.977 41.14C306.147 41.14 305.507 40.81 304.967 40.16L305.537 39.66C305.987 40.15 306.387 40.35 306.937 40.35C307.727 40.35 308.237 39.82 308.237 38.93C308.237 37.92 307.717 37.58 306.877 37.58H306.427L306.537 36.85H306.847C307.537 36.85 308.087 36.43 308.087 35.56C308.087 34.83 307.657 34.42 306.977 34.42C306.467 34.42 306.057 34.62 305.637 35.05L305.127 34.52C305.687 33.95 306.317 33.66 307.067 33.66ZM314.67 38.44V39.22H313.84V41H312.92V39.22H310.1V38.52L312.03 33.65L312.85 33.96L311.09 38.44H312.93L313.03 36.47H313.84V38.44H314.67ZM319.245 33.77L319.115 34.53H316.585V36.69C316.905 36.5 317.235 36.39 317.635 36.39C318.735 36.39 319.495 37.22 319.495 38.67C319.495 40.13 318.585 41.14 317.185 41.14C316.325 41.14 315.735 40.78 315.215 40.2L315.785 39.68C316.185 40.11 316.585 40.35 317.165 40.35C317.975 40.35 318.485 39.76 318.485 38.66C318.485 37.51 317.985 37.12 317.315 37.12C316.955 37.12 316.695 37.21 316.365 37.4H315.655V33.77H319.245ZM323.056 36.25C324.026 36.25 324.856 37.01 324.856 38.55C324.856 40.18 323.976 41.14 322.746 41.14C321.146 41.14 320.506 39.76 320.506 37.67C320.506 35.19 321.486 33.66 323.056 33.66C323.596 33.66 324.016 33.83 324.386 34.1L324.006 34.71C323.716 34.52 323.416 34.41 323.066 34.41C322.126 34.41 321.556 35.45 321.496 37.18C321.896 36.56 322.426 36.25 323.056 36.25ZM322.746 40.37C323.486 40.37 323.876 39.7 323.876 38.58C323.876 37.4 323.446 36.98 322.856 36.98C322.306 36.98 321.826 37.4 321.496 38.01C321.526 39.63 321.886 40.37 322.746 40.37ZM329.367 33.77V34.49L326.897 41.11L326.027 40.83L328.387 34.55H325.507V33.77H329.367ZM333.173 37.14C334.163 37.59 334.613 38.17 334.613 39.09C334.613 40.31 333.703 41.14 332.313 41.14C330.923 41.14 330.053 40.3 330.053 39.11C330.053 38.18 330.543 37.59 331.413 37.19C330.633 36.78 330.323 36.25 330.323 35.51C330.323 34.31 331.253 33.66 332.333 33.66C333.403 33.66 334.353 34.26 334.353 35.48C334.353 36.2 333.993 36.71 333.173 37.14ZM332.333 34.37C331.693 34.37 331.263 34.71 331.263 35.52C331.263 36.22 331.613 36.5 332.343 36.81L332.573 36.9C333.183 36.52 333.413 36.12 333.413 35.51C333.413 34.75 333.003 34.37 332.333 34.37ZM332.333 40.38C333.143 40.38 333.643 39.95 333.643 39.09C333.643 38.31 333.283 37.97 332.323 37.58L332.023 37.46C331.333 37.81 331.033 38.32 331.033 39.09C331.033 39.97 331.543 40.38 332.333 40.38ZM337.603 33.66C339.053 33.66 339.763 34.73 339.763 36.51C339.763 39.43 338.603 40.5 336.173 41.24L335.963 40.51C337.623 40 338.603 39.22 338.753 37.54C338.413 38.04 337.913 38.36 337.283 38.36C336.283 38.36 335.443 37.49 335.443 36.05C335.443 34.51 336.393 33.66 337.603 33.66ZM337.503 37.62C338.033 37.62 338.443 37.28 338.783 36.71C338.793 35.04 338.423 34.4 337.613 34.4C336.883 34.4 336.423 34.94 336.423 36.06C336.423 37.12 336.873 37.62 337.503 37.62ZM343.097 33.66C344.547 33.66 345.307 34.9 345.307 37.39C345.307 39.91 344.547 41.14 343.097 41.14C341.637 41.14 340.867 39.9 340.867 37.39C340.867 34.88 341.637 33.66 343.097 33.66ZM343.097 34.42C342.287 34.42 341.877 35.19 341.877 37.39C341.877 39.6 342.287 40.37 343.097 40.37C343.897 40.37 344.307 39.61 344.307 37.39C344.307 35.18 343.897 34.42 343.097 34.42ZM347.052 39.75C347.482 39.75 347.752 40.07 347.752 40.44C347.752 40.82 347.482 41.14 347.052 41.14C346.662 41.14 346.372 40.82 346.372 40.44C346.372 40.07 346.662 39.75 347.052 39.75ZM351.557 35.18C352.807 35.18 353.407 36.27 353.407 38.14C353.407 39.96 352.707 41.14 351.427 41.14C350.847 41.14 350.387 40.88 350.067 40.45V43.17L349.087 43.29V35.31H349.947L350.007 36.06C350.387 35.5 350.907 35.18 351.557 35.18ZM351.197 40.36C351.957 40.36 352.397 39.7 352.397 38.15C352.397 36.57 352.017 35.95 351.297 35.95C350.747 35.95 350.357 36.33 350.067 36.8V39.66C350.347 40.09 350.717 40.36 351.197 40.36ZM357.149 35.19C357.329 35.19 357.489 35.21 357.639 35.25L357.469 36.19C357.329 36.15 357.199 36.13 357.029 36.13C356.369 36.13 355.999 36.67 355.789 37.72V41H354.809V35.31H355.659L355.739 36.44C356.019 35.61 356.489 35.19 357.149 35.19ZM359.069 32.63C359.459 32.63 359.719 32.91 359.719 33.28C359.719 33.63 359.459 33.9 359.069 33.9C358.689 33.9 358.429 33.63 358.429 33.28C358.429 32.91 358.689 32.63 359.069 32.63ZM359.569 35.31V40.77C359.569 42.27 358.949 42.76 357.889 43.27L357.589 42.58C358.259 42.21 358.589 41.91 358.589 40.81V35.31H359.569Z" fill="#232323"/>
<path d="M241.88 50.0853L239.017 47.1238C238.979 47.0845 238.934 47.0533 238.884 47.0321C238.834 47.0109 238.781 47 238.727 47H233.818C233.601 47 233.393 47.0891 233.24 47.2478C233.086 47.4065 233 47.6217 233 47.8462V57.1538C233 57.3783 233.086 57.5935 233.24 57.7522C233.393 57.9109 233.601 58 233.818 58H241.182C241.399 58 241.607 57.9109 241.76 57.7522C241.914 57.5935 242 57.3783 242 57.1538V50.3846C242 50.329 241.989 50.274 241.969 50.2226C241.948 50.1713 241.918 50.1246 241.88 50.0853ZM239.136 48.4443L240.603 49.9615H239.136V48.4443ZM241.182 57.1538H233.818V47.8462H238.318V50.3846C238.318 50.4968 238.361 50.6044 238.438 50.6838C238.515 50.7631 238.619 50.8077 238.727 50.8077H241.182V57.1538Z" fill="#A3A3A3"/>
<path d="M248.68 52.83V56.7H247.81V52.94C247.51 53.33 247.15 53.75 246.9 53.96L246.33 53.17C247.2 52.47 248.16 51.16 248.66 50.02H246.61V49.2H248.23C248.08 48.85 247.72 48.3 247.47 47.92L248.13 47.52C248.42 47.92 248.79 48.47 248.94 48.79L248.32 49.2H249.14L249.24 49.16L249.72 49.52C249.47 50.25 249.09 51.05 248.68 51.71V51.8C248.75 51.87 248.8 51.97 248.89 52.06C249.12 51.79 249.42 51.36 249.57 51.1L250.15 51.6C250.06 51.7 249.96 51.8 249.86 51.9L249.79 51.98C249.6 52.16 249.42 52.35 249.28 52.49C249.57 52.83 249.91 53.23 250.01 53.36L249.49 54.09C249.33 53.81 248.97 53.25 248.68 52.83ZM251.94 49.2C251.94 49.26 251.94 49.32 251.93 49.38V49.51C251.78 52.66 251.29 55.27 249.81 56.7L249.15 55.97C250.45 54.87 250.92 52.68 251.06 50.1V49.99C251.07 49.93 251.07 49.87 251.07 49.81L251.08 49.69C251.08 49.63 251.08 49.57 251.09 49.5V49.38C251.09 49.32 251.09 49.26 251.09 49.2H249.8V48.32H254.23C254.23 48.32 254.22 48.67 254.22 48.8C254.12 53.56 254.01 55.61 253.69 56.1C253.5 56.42 253.25 56.56 252.96 56.61C252.67 56.65 252.14 56.64 251.56 56.62L251.55 55.75C251.88 55.79 252.31 55.79 252.53 55.79H252.59C252.75 55.79 252.84 55.73 252.92 55.61C253.18 55.27 253.29 53.29 253.38 49.2H251.94ZM262.804 52.14C261.624 54.62 259.194 56.15 255.894 56.69L255.684 55.78C257.204 55.56 258.734 55 259.794 54.32H259.124V51.27H255.634V50.4H256.894V48.23H257.754V50.4H259.214V47.55H260.104V48.45H262.654V49.32H260.104V50.4H263.374V51.27H260.014V54.18C260.854 53.6 261.534 52.69 261.974 51.71L262.804 52.14ZM258.424 51.95C257.954 52.8 257.124 53.82 256.464 54.38L255.874 53.66C256.484 53.22 257.214 52.37 257.604 51.64L258.424 51.95ZM266.928 49.18L266.338 49.8C266.148 49.58 265.848 49.23 265.538 48.89L265.468 48.81C265.298 48.62 265.128 48.43 264.988 48.27L265.528 47.72C265.668 47.86 265.828 48.02 265.988 48.19L266.068 48.26C266.078 48.28 266.088 48.29 266.098 48.3L266.178 48.38C266.468 48.68 266.748 48.97 266.928 49.18ZM268.198 51.61C268.198 53.05 268.038 55.46 267.228 56.72C267.118 56.58 266.758 56.29 266.608 56.21C266.818 55.86 267.028 55.36 267.148 54.93C266.038 56 265.778 56.28 265.698 56.39L265.118 55.88C265.318 55.67 265.648 55.17 265.648 54.63V51.41H264.508V50.53H266.468V54.51L267.038 53.98C267.088 54.15 267.168 54.4 267.238 54.57C267.338 54.11 267.388 53.58 267.418 53.06V52.96C267.438 52.52 267.448 52.1 267.448 51.74V47.94H272.248V55.65C272.248 56.07 272.148 56.39 271.908 56.53C271.668 56.67 271.228 56.7 270.548 56.69L270.488 55.86C270.788 55.87 271.218 55.87 271.338 55.87C271.458 55.87 271.488 55.78 271.488 55.64V48.74H268.198V51.61ZM271.248 51.22V51.91H268.468V51.22H269.488V50.38H268.648V49.71H269.488V48.96H270.148V49.71H271.048V50.38H270.148V51.22H271.248ZM270.988 52.64V55.15H268.608V52.64H270.988ZM269.248 54.47H270.348V53.31H269.248V54.47ZM277.072 49.63C276.352 50.69 275.092 51.71 273.912 52.23L273.522 51.43C274.422 51.1 275.562 50.29 276.242 49.49H273.642V48.7H277.072V47.54H277.922V48.7H281.422V49.49H278.732C279.432 50.27 280.592 51.03 281.502 51.35L281.132 52.16C279.932 51.66 278.672 50.66 277.922 49.63V51.4H277.072V49.63ZM279.992 51.7V54.99H275.022V51.7H279.992ZM275.862 53.02H279.122V52.34H275.862V53.02ZM275.862 54.35H279.122V53.63H275.862V54.35ZM281.322 55.58V56.4H273.762V55.58H281.322ZM284.226 48.66C285.466 48.66 286.186 49.49 286.186 50.48C286.186 51.41 285.656 51.97 284.816 52.17C285.716 52.25 286.386 52.84 286.386 53.94C286.386 55.16 285.536 56.14 284.136 56.14C283.306 56.14 282.666 55.81 282.126 55.16L282.696 54.66C283.146 55.15 283.546 55.35 284.096 55.35C284.886 55.35 285.396 54.82 285.396 53.93C285.396 52.92 284.876 52.58 284.036 52.58H283.586L283.696 51.85H284.006C284.696 51.85 285.246 51.43 285.246 50.56C285.246 49.83 284.816 49.42 284.136 49.42C283.626 49.42 283.216 49.62 282.796 50.05L282.286 49.52C282.846 48.95 283.476 48.66 284.226 48.66ZM289.079 48.66C290.339 48.66 291.069 49.5 291.069 50.59C291.069 51.93 290.369 52.82 288.269 55.19H291.229L291.109 56H287.209V55.24C289.529 52.55 290.069 51.82 290.069 50.64C290.069 49.88 289.649 49.44 289.009 49.44C288.459 49.44 288.089 49.7 287.679 50.21L287.059 49.76C287.589 49.03 288.239 48.66 289.079 48.66ZM294.834 48.77V56H293.864V49.79L292.364 50.81L291.924 50.16L293.974 48.77H294.834ZM299.053 48.77V56H298.083V49.79L296.583 50.81L296.143 50.16L298.193 48.77H299.053ZM302.282 48.66C303.542 48.66 304.272 49.5 304.272 50.59C304.272 51.93 303.572 52.82 301.472 55.19H304.432L304.312 56H300.412V55.24C302.732 52.55 303.272 51.82 303.272 50.64C303.272 49.88 302.852 49.44 302.212 49.44C301.662 49.44 301.292 49.7 300.882 50.21L300.262 49.76C300.792 49.03 301.442 48.66 302.282 48.66ZM307.067 48.66C308.307 48.66 309.027 49.49 309.027 50.48C309.027 51.41 308.497 51.97 307.657 52.17C308.557 52.25 309.227 52.84 309.227 53.94C309.227 55.16 308.377 56.14 306.977 56.14C306.147 56.14 305.507 55.81 304.967 55.16L305.537 54.66C305.987 55.15 306.387 55.35 306.937 55.35C307.727 55.35 308.237 54.82 308.237 53.93C308.237 52.92 307.717 52.58 306.877 52.58H306.427L306.537 51.85H306.847C307.537 51.85 308.087 51.43 308.087 50.56C308.087 49.83 307.657 49.42 306.977 49.42C306.467 49.42 306.057 49.62 305.637 50.05L305.127 49.52C305.687 48.95 306.317 48.66 307.067 48.66ZM314.67 53.44V54.22H313.84V56H312.92V54.22H310.1V53.52L312.03 48.65L312.85 48.96L311.09 53.44H312.93L313.03 51.47H313.84V53.44H314.67ZM319.245 48.77L319.115 49.53H316.585V51.69C316.905 51.5 317.235 51.39 317.635 51.39C318.735 51.39 319.495 52.22 319.495 53.67C319.495 55.13 318.585 56.14 317.185 56.14C316.325 56.14 315.735 55.78 315.215 55.2L315.785 54.68C316.185 55.11 316.585 55.35 317.165 55.35C317.975 55.35 318.485 54.76 318.485 53.66C318.485 52.51 317.985 52.12 317.315 52.12C316.955 52.12 316.695 52.21 316.365 52.4H315.655V48.77H319.245ZM323.056 51.25C324.026 51.25 324.856 52.01 324.856 53.55C324.856 55.18 323.976 56.14 322.746 56.14C321.146 56.14 320.506 54.76 320.506 52.67C320.506 50.19 321.486 48.66 323.056 48.66C323.596 48.66 324.016 48.83 324.386 49.1L324.006 49.71C323.716 49.52 323.416 49.41 323.066 49.41C322.126 49.41 321.556 50.45 321.496 52.18C321.896 51.56 322.426 51.25 323.056 51.25ZM322.746 55.37C323.486 55.37 323.876 54.7 323.876 53.58C323.876 52.4 323.446 51.98 322.856 51.98C322.306 51.98 321.826 52.4 321.496 53.01C321.526 54.63 321.886 55.37 322.746 55.37ZM329.367 48.77V49.49L326.897 56.11L326.027 55.83L328.387 49.55H325.507V48.77H329.367ZM333.173 52.14C334.163 52.59 334.613 53.17 334.613 54.09C334.613 55.31 333.703 56.14 332.313 56.14C330.923 56.14 330.053 55.3 330.053 54.11C330.053 53.18 330.543 52.59 331.413 52.19C330.633 51.78 330.323 51.25 330.323 50.51C330.323 49.31 331.253 48.66 332.333 48.66C333.403 48.66 334.353 49.26 334.353 50.48C334.353 51.2 333.993 51.71 333.173 52.14ZM332.333 49.37C331.693 49.37 331.263 49.71 331.263 50.52C331.263 51.22 331.613 51.5 332.343 51.81L332.573 51.9C333.183 51.52 333.413 51.12 333.413 50.51C333.413 49.75 333.003 49.37 332.333 49.37ZM332.333 55.38C333.143 55.38 333.643 54.95 333.643 54.09C333.643 53.31 333.283 52.97 332.323 52.58L332.023 52.46C331.333 52.81 331.033 53.32 331.033 54.09C331.033 54.97 331.543 55.38 332.333 55.38ZM337.603 48.66C339.053 48.66 339.763 49.73 339.763 51.51C339.763 54.43 338.603 55.5 336.173 56.24L335.963 55.51C337.623 55 338.603 54.22 338.753 52.54C338.413 53.04 337.913 53.36 337.283 53.36C336.283 53.36 335.443 52.49 335.443 51.05C335.443 49.51 336.393 48.66 337.603 48.66ZM337.503 52.62C338.033 52.62 338.443 52.28 338.783 51.71C338.793 50.04 338.423 49.4 337.613 49.4C336.883 49.4 336.423 49.94 336.423 51.06C336.423 52.12 336.873 52.62 337.503 52.62ZM343.097 48.66C344.547 48.66 345.307 49.9 345.307 52.39C345.307 54.91 344.547 56.14 343.097 56.14C341.637 56.14 340.867 54.9 340.867 52.39C340.867 49.88 341.637 48.66 343.097 48.66ZM343.097 49.42C342.287 49.42 341.877 50.19 341.877 52.39C341.877 54.6 342.287 55.37 343.097 55.37C343.897 55.37 344.307 54.61 344.307 52.39C344.307 50.18 343.897 49.42 343.097 49.42ZM347.052 54.75C347.482 54.75 347.752 55.07 347.752 55.44C347.752 55.82 347.482 56.14 347.052 56.14C346.662 56.14 346.372 55.82 346.372 55.44C346.372 55.07 346.662 54.75 347.052 54.75ZM350.557 50.18C351.277 50.18 351.827 50.42 352.307 50.83L351.897 51.4C351.467 51.1 351.087 50.93 350.607 50.93C350.027 50.93 349.667 51.23 349.667 51.71C349.667 52.19 349.937 52.4 350.817 52.68C351.897 53.03 352.457 53.47 352.457 54.42C352.457 55.54 351.527 56.14 350.417 56.14C349.567 56.14 348.927 55.82 348.467 55.37L348.957 54.83C349.367 55.17 349.827 55.38 350.397 55.38C351.037 55.38 351.457 55.06 351.457 54.49C351.457 53.9 351.207 53.68 350.217 53.36C349.127 53.01 348.687 52.53 348.687 51.76C348.687 50.86 349.457 50.18 350.557 50.18ZM356.216 50.18C357.136 50.18 357.666 50.84 357.666 51.86V56H356.696V51.98C356.696 51.23 356.426 50.95 355.946 50.95C355.416 50.95 355.016 51.35 354.656 51.96V56H353.676V48.03L354.656 47.92V51.13C355.036 50.55 355.526 50.18 356.216 50.18ZM361.82 50.18C363.07 50.18 363.67 51.27 363.67 53.14C363.67 54.96 362.97 56.14 361.69 56.14C361.11 56.14 360.65 55.88 360.33 55.45V58.17L359.35 58.29V50.31H360.21L360.27 51.06C360.65 50.5 361.17 50.18 361.82 50.18ZM361.46 55.36C362.22 55.36 362.66 54.7 362.66 53.15C362.66 51.57 362.28 50.95 361.56 50.95C361.01 50.95 360.62 51.33 360.33 51.8V54.66C360.61 55.09 360.98 55.36 361.46 55.36Z" fill="#232323"/>
<path d="M241.88 65.0853L239.017 62.1238C238.979 62.0845 238.934 62.0533 238.884 62.0321C238.834 62.0109 238.781 62 238.727 62H233.818C233.601 62 233.393 62.0891 233.24 62.2478C233.086 62.4065 233 62.6217 233 62.8462V72.1538C233 72.3783 233.086 72.5935 233.24 72.7522C233.393 72.9109 233.601 73 233.818 73H241.182C241.399 73 241.607 72.9109 241.76 72.7522C241.914 72.5935 242 72.3783 242 72.1538V65.3846C242 65.329 241.989 65.274 241.969 65.2226C241.948 65.1713 241.918 65.1246 241.88 65.0853ZM239.136 63.4443L240.603 64.9615H239.136V63.4443ZM241.182 72.1538H233.818V62.8462H238.318V65.3846C238.318 65.4968 238.361 65.6044 238.438 65.6838C238.515 65.7631 238.619 65.8077 238.727 65.8077H241.182V72.1538Z" fill="#A3A3A3"/>
<path d="M248.68 67.83V71.7H247.81V67.94C247.51 68.33 247.15 68.75 246.9 68.96L246.33 68.17C247.2 67.47 248.16 66.16 248.66 65.02H246.61V64.2H248.23C248.08 63.85 247.72 63.3 247.47 62.92L248.13 62.52C248.42 62.92 248.79 63.47 248.94 63.79L248.32 64.2H249.14L249.24 64.16L249.72 64.52C249.47 65.25 249.09 66.05 248.68 66.71V66.8C248.75 66.87 248.8 66.97 248.89 67.06C249.12 66.79 249.42 66.36 249.57 66.1L250.15 66.6C250.06 66.7 249.96 66.8 249.86 66.9L249.79 66.98C249.6 67.16 249.42 67.35 249.28 67.49C249.57 67.83 249.91 68.23 250.01 68.36L249.49 69.09C249.33 68.81 248.97 68.25 248.68 67.83ZM251.94 64.2C251.94 64.26 251.94 64.32 251.93 64.38V64.51C251.78 67.66 251.29 70.27 249.81 71.7L249.15 70.97C250.45 69.87 250.92 67.68 251.06 65.1V64.99C251.07 64.93 251.07 64.87 251.07 64.81L251.08 64.69C251.08 64.63 251.08 64.57 251.09 64.5V64.38C251.09 64.32 251.09 64.26 251.09 64.2H249.8V63.32H254.23C254.23 63.32 254.22 63.67 254.22 63.8C254.12 68.56 254.01 70.61 253.69 71.1C253.5 71.42 253.25 71.56 252.96 71.61C252.67 71.65 252.14 71.64 251.56 71.62L251.55 70.75C251.88 70.79 252.31 70.79 252.53 70.79H252.59C252.75 70.79 252.84 70.73 252.92 70.61C253.18 70.27 253.29 68.29 253.38 64.2H251.94ZM262.804 67.14C261.624 69.62 259.194 71.15 255.894 71.69L255.684 70.78C257.204 70.56 258.734 70 259.794 69.32H259.124V66.27H255.634V65.4H256.894V63.23H257.754V65.4H259.214V62.55H260.104V63.45H262.654V64.32H260.104V65.4H263.374V66.27H260.014V69.18C260.854 68.6 261.534 67.69 261.974 66.71L262.804 67.14ZM258.424 66.95C257.954 67.8 257.124 68.82 256.464 69.38L255.874 68.66C256.484 68.22 257.214 67.37 257.604 66.64L258.424 66.95ZM266.928 64.18L266.338 64.8C266.148 64.58 265.848 64.23 265.538 63.89L265.468 63.81C265.298 63.62 265.128 63.43 264.988 63.27L265.528 62.72C265.668 62.86 265.828 63.02 265.988 63.19L266.068 63.26C266.078 63.28 266.088 63.29 266.098 63.3L266.178 63.38C266.468 63.68 266.748 63.97 266.928 64.18ZM268.198 66.61C268.198 68.05 268.038 70.46 267.228 71.72C267.118 71.58 266.758 71.29 266.608 71.21C266.818 70.86 267.028 70.36 267.148 69.93C266.038 71 265.778 71.28 265.698 71.39L265.118 70.88C265.318 70.67 265.648 70.17 265.648 69.63V66.41H264.508V65.53H266.468V69.51L267.038 68.98C267.088 69.15 267.168 69.4 267.238 69.57C267.338 69.11 267.388 68.58 267.418 68.06V67.96C267.438 67.52 267.448 67.1 267.448 66.74V62.94H272.248V70.65C272.248 71.07 272.148 71.39 271.908 71.53C271.668 71.67 271.228 71.7 270.548 71.69L270.488 70.86C270.788 70.87 271.218 70.87 271.338 70.87C271.458 70.87 271.488 70.78 271.488 70.64V63.74H268.198V66.61ZM271.248 66.22V66.91H268.468V66.22H269.488V65.38H268.648V64.71H269.488V63.96H270.148V64.71H271.048V65.38H270.148V66.22H271.248ZM270.988 67.64V70.15H268.608V67.64H270.988ZM269.248 69.47H270.348V68.31H269.248V69.47ZM277.072 64.63C276.352 65.69 275.092 66.71 273.912 67.23L273.522 66.43C274.422 66.1 275.562 65.29 276.242 64.49H273.642V63.7H277.072V62.54H277.922V63.7H281.422V64.49H278.732C279.432 65.27 280.592 66.03 281.502 66.35L281.132 67.16C279.932 66.66 278.672 65.66 277.922 64.63V66.4H277.072V64.63ZM279.992 66.7V69.99H275.022V66.7H279.992ZM275.862 68.02H279.122V67.34H275.862V68.02ZM275.862 69.35H279.122V68.63H275.862V69.35ZM281.322 70.58V71.4H273.762V70.58H281.322ZM284.226 63.66C285.466 63.66 286.186 64.49 286.186 65.48C286.186 66.41 285.656 66.97 284.816 67.17C285.716 67.25 286.386 67.84 286.386 68.94C286.386 70.16 285.536 71.14 284.136 71.14C283.306 71.14 282.666 70.81 282.126 70.16L282.696 69.66C283.146 70.15 283.546 70.35 284.096 70.35C284.886 70.35 285.396 69.82 285.396 68.93C285.396 67.92 284.876 67.58 284.036 67.58H283.586L283.696 66.85H284.006C284.696 66.85 285.246 66.43 285.246 65.56C285.246 64.83 284.816 64.42 284.136 64.42C283.626 64.42 283.216 64.62 282.796 65.05L282.286 64.52C282.846 63.95 283.476 63.66 284.226 63.66ZM289.079 63.66C290.339 63.66 291.069 64.5 291.069 65.59C291.069 66.93 290.369 67.82 288.269 70.19H291.229L291.109 71H287.209V70.24C289.529 67.55 290.069 66.82 290.069 65.64C290.069 64.88 289.649 64.44 289.009 64.44C288.459 64.44 288.089 64.7 287.679 65.21L287.059 64.76C287.589 64.03 288.239 63.66 289.079 63.66ZM294.834 63.77V71H293.864V64.79L292.364 65.81L291.924 65.16L293.974 63.77H294.834ZM299.053 63.77V71H298.083V64.79L296.583 65.81L296.143 65.16L298.193 63.77H299.053ZM302.282 63.66C303.542 63.66 304.272 64.5 304.272 65.59C304.272 66.93 303.572 67.82 301.472 70.19H304.432L304.312 71H300.412V70.24C302.732 67.55 303.272 66.82 303.272 65.64C303.272 64.88 302.852 64.44 302.212 64.44C301.662 64.44 301.292 64.7 300.882 65.21L300.262 64.76C300.792 64.03 301.442 63.66 302.282 63.66ZM307.067 63.66C308.307 63.66 309.027 64.49 309.027 65.48C309.027 66.41 308.497 66.97 307.657 67.17C308.557 67.25 309.227 67.84 309.227 68.94C309.227 70.16 308.377 71.14 306.977 71.14C306.147 71.14 305.507 70.81 304.967 70.16L305.537 69.66C305.987 70.15 306.387 70.35 306.937 70.35C307.727 70.35 308.237 69.82 308.237 68.93C308.237 67.92 307.717 67.58 306.877 67.58H306.427L306.537 66.85H306.847C307.537 66.85 308.087 66.43 308.087 65.56C308.087 64.83 307.657 64.42 306.977 64.42C306.467 64.42 306.057 64.62 305.637 65.05L305.127 64.52C305.687 63.95 306.317 63.66 307.067 63.66ZM314.67 68.44V69.22H313.84V71H312.92V69.22H310.1V68.52L312.03 63.65L312.85 63.96L311.09 68.44H312.93L313.03 66.47H313.84V68.44H314.67ZM319.245 63.77L319.115 64.53H316.585V66.69C316.905 66.5 317.235 66.39 317.635 66.39C318.735 66.39 319.495 67.22 319.495 68.67C319.495 70.13 318.585 71.14 317.185 71.14C316.325 71.14 315.735 70.78 315.215 70.2L315.785 69.68C316.185 70.11 316.585 70.35 317.165 70.35C317.975 70.35 318.485 69.76 318.485 68.66C318.485 67.51 317.985 67.12 317.315 67.12C316.955 67.12 316.695 67.21 316.365 67.4H315.655V63.77H319.245ZM323.056 66.25C324.026 66.25 324.856 67.01 324.856 68.55C324.856 70.18 323.976 71.14 322.746 71.14C321.146 71.14 320.506 69.76 320.506 67.67C320.506 65.19 321.486 63.66 323.056 63.66C323.596 63.66 324.016 63.83 324.386 64.1L324.006 64.71C323.716 64.52 323.416 64.41 323.066 64.41C322.126 64.41 321.556 65.45 321.496 67.18C321.896 66.56 322.426 66.25 323.056 66.25ZM322.746 70.37C323.486 70.37 323.876 69.7 323.876 68.58C323.876 67.4 323.446 66.98 322.856 66.98C322.306 66.98 321.826 67.4 321.496 68.01C321.526 69.63 321.886 70.37 322.746 70.37ZM329.367 63.77V64.49L326.897 71.11L326.027 70.83L328.387 64.55H325.507V63.77H329.367ZM333.173 67.14C334.163 67.59 334.613 68.17 334.613 69.09C334.613 70.31 333.703 71.14 332.313 71.14C330.923 71.14 330.053 70.3 330.053 69.11C330.053 68.18 330.543 67.59 331.413 67.19C330.633 66.78 330.323 66.25 330.323 65.51C330.323 64.31 331.253 63.66 332.333 63.66C333.403 63.66 334.353 64.26 334.353 65.48C334.353 66.2 333.993 66.71 333.173 67.14ZM332.333 64.37C331.693 64.37 331.263 64.71 331.263 65.52C331.263 66.22 331.613 66.5 332.343 66.81L332.573 66.9C333.183 66.52 333.413 66.12 333.413 65.51C333.413 64.75 333.003 64.37 332.333 64.37ZM332.333 70.38C333.143 70.38 333.643 69.95 333.643 69.09C333.643 68.31 333.283 67.97 332.323 67.58L332.023 67.46C331.333 67.81 331.033 68.32 331.033 69.09C331.033 69.97 331.543 70.38 332.333 70.38ZM337.603 63.66C339.053 63.66 339.763 64.73 339.763 66.51C339.763 69.43 338.603 70.5 336.173 71.24L335.963 70.51C337.623 70 338.603 69.22 338.753 67.54C338.413 68.04 337.913 68.36 337.283 68.36C336.283 68.36 335.443 67.49 335.443 66.05C335.443 64.51 336.393 63.66 337.603 63.66ZM337.503 67.62C338.033 67.62 338.443 67.28 338.783 66.71C338.793 65.04 338.423 64.4 337.613 64.4C336.883 64.4 336.423 64.94 336.423 66.06C336.423 67.12 336.873 67.62 337.503 67.62ZM343.097 63.66C344.547 63.66 345.307 64.9 345.307 67.39C345.307 69.91 344.547 71.14 343.097 71.14C341.637 71.14 340.867 69.9 340.867 67.39C340.867 64.88 341.637 63.66 343.097 63.66ZM343.097 64.42C342.287 64.42 341.877 65.19 341.877 67.39C341.877 69.6 342.287 70.37 343.097 70.37C343.897 70.37 344.307 69.61 344.307 67.39C344.307 65.18 343.897 64.42 343.097 64.42ZM347.052 69.75C347.482 69.75 347.752 70.07 347.752 70.44C347.752 70.82 347.482 71.14 347.052 71.14C346.662 71.14 346.372 70.82 346.372 70.44C346.372 70.07 346.662 69.75 347.052 69.75ZM350.557 65.18C351.277 65.18 351.827 65.42 352.307 65.83L351.897 66.4C351.467 66.1 351.087 65.93 350.607 65.93C350.027 65.93 349.667 66.23 349.667 66.71C349.667 67.19 349.937 67.4 350.817 67.68C351.897 68.03 352.457 68.47 352.457 69.42C352.457 70.54 351.527 71.14 350.417 71.14C349.567 71.14 348.927 70.82 348.467 70.37L348.957 69.83C349.367 70.17 349.827 70.38 350.397 70.38C351.037 70.38 351.457 70.06 351.457 69.49C351.457 68.9 351.207 68.68 350.217 68.36C349.127 68.01 348.687 67.53 348.687 66.76C348.687 65.86 349.457 65.18 350.557 65.18ZM356.216 65.18C357.136 65.18 357.666 65.84 357.666 66.86V71H356.696V66.98C356.696 66.23 356.426 65.95 355.946 65.95C355.416 65.95 355.016 66.35 354.656 66.96V71H353.676V63.03L354.656 62.92V66.13C355.036 65.55 355.526 65.18 356.216 65.18ZM361.43 67.95L363.19 71H362.11L360.83 68.54L359.57 71H358.53L360.28 68L358.73 65.31H359.79L360.87 67.44L361.94 65.31H362.96L361.43 67.95Z" fill="#232323"/>
<path d="M129.63 59.68C129.62 61.14 129.39 63.5 128.24 64.73C128.12 64.56 127.75 64.22 127.57 64.11C128.64 62.95 128.78 60.93 128.78 59.61V56.47C129.04 56.43 129.31 56.38 129.6 56.32L129.7 56.3C130.51 56.13 131.34 55.92 131.85 55.67L132.41 56.45C131.69 56.76 130.56 57.01 129.63 57.16V58.79H132.56V59.68H131.61V64.66H130.77V59.68H129.63ZM125.76 61.03C125.71 62.19 125.52 63.83 125.04 64.75C124.91 64.59 124.52 64.25 124.34 64.15C124.88 63.03 124.95 61.12 124.95 59.9V56.44C125.96 56.3 127.27 56.05 127.95 55.73L128.49 56.5C127.8 56.8 126.69 57.02 125.79 57.14V57.94H128.11V61.03H125.76ZM125.79 60.19H127.29V58.77H125.79V60.19ZM139.304 58.82V62.8H138.394V55.55H139.304V58L139.554 57.83C139.814 58.16 140.104 58.55 140.394 58.95L140.464 59.04C140.844 59.57 141.194 60.1 141.394 60.48L140.644 60.99C140.374 60.44 139.794 59.53 139.304 58.82ZM136.074 62.73C135.554 63.55 134.844 64.31 134.024 64.77L133.504 63.95C134.234 63.58 134.994 62.77 135.534 61.91C135.284 61.46 135.064 60.84 134.864 60.19L134.834 60.08C134.814 60 134.784 59.91 134.764 59.83C134.604 60.19 134.424 60.59 134.224 60.87C134.104 60.72 133.764 60.46 133.554 60.34C134.094 59.57 134.554 58.12 134.834 56.62L134.854 56.51C134.914 56.2 134.954 55.89 134.994 55.58L135.874 55.79C135.804 56.2 135.724 56.66 135.644 57.06H136.984L137.114 57.02L137.704 57.19C137.524 59.05 137.094 60.8 136.534 61.93C137.454 63.09 138.754 63.47 139.994 63.47H140.124C140.284 63.47 140.524 63.47 140.764 63.47H140.884C141.184 63.47 141.474 63.46 141.644 63.45C141.514 63.68 141.344 64.18 141.304 64.43H139.944C138.534 64.43 137.114 63.99 136.074 62.73ZM135.224 58.62C135.424 59.57 135.694 60.45 136.004 61.04C136.314 60.3 136.564 59.28 136.714 58.22L136.734 58.11C136.734 58.07 136.744 58.04 136.744 58L136.764 57.89H135.414C135.354 58.14 135.294 58.42 135.224 58.62ZM147.898 56.97C147.448 57.9 146.738 58.88 145.818 59.58L145.278 58.85C146.498 57.96 147.248 56.61 147.538 55.49L148.418 55.63C148.378 55.77 148.318 55.96 148.268 56.11C148.778 57.13 149.758 58.17 150.618 58.65L150.118 59.42C149.308 58.89 148.458 57.96 147.898 56.97ZM143.658 56.78V64.72H142.818V55.93H145.038L145.168 55.89L145.738 56.28C145.648 56.55 145.528 56.85 145.408 57.15L145.368 57.24C145.338 57.32 145.308 57.4 145.278 57.48L145.238 57.58C145.058 57.99 144.888 58.39 144.718 58.74C145.438 59.49 145.638 60.27 145.648 60.84C145.648 61.4 145.488 61.88 145.218 62.1C145.058 62.19 144.858 62.27 144.668 62.3C144.468 62.33 144.188 62.33 143.868 62.32L143.878 61.49C143.948 61.51 144.168 61.51 144.328 61.5C144.448 61.49 144.548 61.46 144.618 61.4C144.778 61.3 144.828 61.03 144.828 60.75C144.828 60.27 144.618 59.55 143.888 58.85C144.168 58.25 144.468 57.39 144.658 56.78H143.658ZM149.368 59.35V64.68H148.518V59.35H149.368ZM147.298 60.81C147.298 62.04 147.128 63.72 146.058 64.8L145.368 64.15C146.318 63.28 146.458 61.85 146.458 60.8V59.35H147.298V60.81ZM152.952 62.79V64.52H152.132V62.94L151.552 63.05L151.422 62.18L152.132 62.05V56.42L152.152 56.43C152.942 56.18 153.942 55.78 154.482 55.46L155.142 56.15C154.542 56.46 153.672 56.76 152.952 56.98V57.84H154.842V58.64H152.952V59.84H154.832V60.65H152.952V61.94C153.232 61.9 153.542 61.85 153.862 61.8L153.962 61.78C154.012 61.77 154.062 61.76 154.112 61.75L154.212 61.74C154.462 61.69 154.712 61.65 154.952 61.61L154.982 62.4C154.722 62.45 154.442 62.51 154.162 62.56L154.062 62.58L153.962 62.6C153.612 62.67 153.262 62.73 152.952 62.79ZM156.562 57.09C156.562 57.96 156.312 59.14 155.402 59.83C155.292 59.67 154.982 59.35 154.812 59.23C155.632 58.62 155.762 57.75 155.762 57.07V55.9H158.382V58.27C158.382 58.52 158.392 58.62 158.642 58.62H158.872C159.122 58.62 159.342 58.62 159.362 58.61L159.592 59.24C159.402 59.33 159.192 59.33 159.012 59.33H158.432C157.772 59.33 157.602 58.98 157.602 58.26V56.7H156.562V57.09ZM157.132 63.54C156.532 64.04 155.772 64.51 154.952 64.78L154.652 63.93C155.292 63.76 156.012 63.34 156.552 62.91C156.122 62.37 155.752 61.56 155.492 60.82L155.932 60.7H155.182V59.91H158.352L158.482 59.88L159.012 60.08C158.762 61.2 158.302 62.26 157.742 62.93C158.232 63.33 158.912 63.73 159.472 63.87L159.162 64.73C158.352 64.48 157.642 64 157.132 63.54ZM156.182 60.7C156.392 61.27 156.762 61.92 157.152 62.36C157.512 61.94 157.792 61.3 158.002 60.7H156.182ZM162.896 58.41V60.03H164.356V60.82H162.896V62.43H162.056V60.82H160.596V60.03H162.056V58.41H162.896ZM173.548 62.52C173.428 63.92 173.128 64.49 171.648 64.49H170.748C169.148 64.49 168.788 64.07 168.788 62.94V60.01L168.198 60.3L167.898 59.48L168.788 59.05V56.45H169.598V58.68L170.548 58.22V55.55H171.348V57.85L172.278 57.4L172.438 57.26L172.588 57.13L173.178 57.38L173.148 57.54C173.148 59.29 173.128 60.75 173.068 61.12C173.028 61.52 172.858 61.77 172.588 61.84C172.358 61.94 171.968 61.95 171.648 61.95L171.608 61.18C171.688 61.18 171.838 61.18 171.958 61.18H172.078C172.188 61.18 172.238 61.12 172.268 60.93C172.308 60.75 172.358 59.73 172.358 58.3L171.348 58.79V62.38H170.548V59.15L169.598 59.63V62.95C169.598 63.48 169.698 63.67 170.768 63.67H171.638C172.628 63.67 172.708 63.31 172.778 62.39L173.548 62.52ZM168.408 61.7C168.168 61.83 167.918 61.96 167.658 62.1L167.558 62.15L167.468 62.2C167.458 62.21 167.438 62.22 167.428 62.23L167.198 62.35C167.158 62.37 167.128 62.38 167.098 62.4L167.008 62.45L166.918 62.5C166.458 62.74 166.018 62.97 165.658 63.15L165.348 62.21C165.618 62.11 165.978 61.93 166.348 61.75L166.448 61.7C166.468 61.7 166.478 61.69 166.498 61.68V58.68H165.408V57.81H166.498V55.67H167.298V57.81H168.278V58.68H167.298V61.33C167.568 61.18 167.898 61.02 168.208 60.89L168.408 61.7ZM179.621 61.26C179.341 62.49 178.611 63.92 177.041 64.77L176.581 63.99C177.961 63.26 178.661 61.95 178.901 60.83H177.331V59.95H178.991C179.011 59.65 179.041 59.28 179.041 58.98V57.97H177.581V57.11H179.041V55.65H179.851V57.11H181.801V59.95H182.391V60.83H180.291C180.681 62.12 181.471 63.4 182.481 63.86L181.991 64.75C180.861 64.13 180.051 62.71 179.621 61.26ZM177.401 61.59C177.161 61.72 176.901 61.86 176.641 62L176.551 62.05C176.491 62.08 176.431 62.12 176.371 62.15L176.281 62.2L176.141 62.27C175.621 62.55 175.111 62.82 174.701 63.03L174.381 62.08C174.701 61.97 175.101 61.76 175.521 61.57V58.68H174.511V57.81H175.521V55.67H176.311V57.81H177.241V58.68H176.311V61.21C176.441 61.15 176.591 61.07 176.741 61L176.831 60.96C176.961 60.89 177.081 60.84 177.191 60.78L177.401 61.59ZM179.841 59.95H180.991V57.97H179.851V59.08C179.851 59.36 179.851 59.68 179.841 59.95ZM191.045 64.5C190.885 64.62 190.635 64.63 190.275 64.63L190.235 63.96C190.315 63.96 190.485 63.96 190.535 63.96C190.595 63.95 190.595 63.91 190.595 63.84V62.46H190.095V64.38H189.545V62.46H189.075V64.4H188.525V62.46H187.965V64.62H187.305V60.81C187.205 62.05 186.925 63.59 186.405 64.56C186.285 64.4 185.925 64.11 185.765 64.03C186.245 63.12 186.465 61.84 186.565 60.66L186.575 60.55C186.635 59.84 186.645 59.17 186.645 58.64V56.54H188.615C188.525 56.29 188.405 55.97 188.295 55.74L189.095 55.49C189.265 55.81 189.425 56.23 189.525 56.54H191.155V58.94H187.415C187.415 59.16 187.425 59.43 187.415 59.67H190.595V59.66H191.265V63.85C191.265 64.14 191.215 64.38 191.045 64.5ZM186.095 61.29C184.255 61.77 183.865 61.93 183.755 62L183.455 61.26C183.625 61.22 183.815 60.94 184.065 60.59C184.185 60.42 184.485 59.93 184.775 59.39C183.985 59.51 183.755 59.58 183.685 59.62L183.365 58.82C183.515 58.78 183.675 58.55 183.835 58.24C184.005 57.93 184.595 56.65 184.875 55.53L185.655 55.83C185.485 56.32 185.285 56.84 185.065 57.34L185.015 57.43C184.815 57.89 184.605 58.32 184.395 58.69L185.175 58.6C185.345 58.26 185.535 57.85 185.675 57.5L186.335 57.92C186.095 58.45 185.815 59.04 185.515 59.59L185.465 59.68C185.235 60.1 184.995 60.5 184.755 60.84L186.035 60.55C186.025 60.76 186.055 61.11 186.095 61.29ZM187.415 58.19H190.375V57.3H187.415V58.19ZM187.965 61.71H188.525V60.42H187.965V61.71ZM189.075 61.71H189.085H189.545V60.42H189.075V61.71ZM190.095 61.71H190.595V60.42H190.095V61.71ZM186.145 62.84C185.895 62.96 185.635 63.09 185.365 63.22L185.225 63.3L185.125 63.34C185.115 63.35 185.095 63.36 185.085 63.37L184.985 63.41C184.975 63.42 184.955 63.43 184.935 63.44L184.845 63.49C184.395 63.72 183.955 63.94 183.605 64.11L183.395 63.25C183.855 63.08 184.535 62.76 185.235 62.42L185.335 62.37C185.555 62.26 185.765 62.15 185.975 62.05L186.145 62.84ZM195.369 59V63.63H193.079V60.79C192.959 61.02 192.809 61.27 192.669 61.47C192.629 61.24 192.429 60.66 192.319 60.42C192.879 59.59 193.299 58.17 193.529 56.85H192.509V56.02H195.599V56.85H194.309C194.189 57.57 194.019 58.34 193.809 59H195.369ZM198.959 64.65C198.739 64.68 198.299 64.68 197.789 64.64L197.799 63.83C198.059 63.87 198.459 63.87 198.619 63.87C198.759 63.88 198.839 63.84 198.919 63.74C199.129 63.52 199.339 62.45 199.479 60.56H196.279V60.55H196.049C196.159 59.78 196.289 58.34 196.349 57.38L197.159 57.44C197.099 58.14 197.029 59.07 196.949 59.76H198.519C198.549 59.39 198.599 58.97 198.639 58.56L198.649 58.45L198.659 58.35L198.669 58.24L198.679 58.14C198.719 57.69 198.759 57.26 198.789 56.9H195.929V56.07H198.929L199.049 56.03L199.659 56.1C199.629 56.61 199.569 57.25 199.499 57.92L199.489 58.02C199.479 58.08 199.479 58.13 199.469 58.18L199.449 58.34C199.399 58.83 199.349 59.32 199.299 59.76H200.349C200.349 59.76 200.329 60.04 200.319 60.15C200.139 62.64 199.919 63.95 199.619 64.3C199.429 64.51 199.229 64.62 198.959 64.65ZM193.799 62.8H194.629V59.81H193.799V62.8ZM198.969 61.73V62.56H195.689V61.73H198.969Z" fill="#232323"/>
<path d="M151.667 45.3333C150.887 45.3333 150.221 45.0561 149.666 44.5017C149.112 43.9473 148.834 43.2801 148.833 42.5V25.5C148.833 24.7208 149.111 24.054 149.666 23.4996C150.222 22.9452 150.888 22.6676 151.667 22.6666H160.167L163 25.5H174.333C175.112 25.5 175.78 25.7776 176.335 26.333C176.89 26.8883 177.168 27.5551 177.167 28.3333V42.5C177.167 43.2791 176.889 43.9464 176.335 44.5017C175.781 45.057 175.113 45.3342 174.333 45.3333H151.667Z" fill="#EAB308"/>
<path d="M30.7317 10.05H53.3958L63.7565 20.4107V51.9064C63.7565 52.8351 63.0036 53.588 62.0748 53.588H30.7317C29.8029 53.588 29.05 52.8351 29.05 51.9064V11.7317C29.05 10.8029 29.8029 10.05 30.7317 10.05Z" fill="#EBEBEB" stroke="#A8A8A8" stroke-width="0.1"/>
<path d="M43.0265 10H46.5245V13.498H43.0265V10Z" fill="#9BCA4F"/>
<path d="M46.5245 13.498H50.0224V16.9959H46.5245V13.498Z" fill="#9BCA4F"/>
<path d="M43.0265 16.9959H46.5245V20.4939H43.0265V16.9959Z" fill="#9BCA4F"/>
<path d="M46.5245 20.4939L50.0224 20.4939V23.9919H46.5245V20.4939Z" fill="#9BCA4F"/>
<path d="M43.0265 23.9919H46.5245V27.4898H43.0265V23.9919Z" fill="#9BCA4F"/>
<path d="M50.0224 27.4898H46.5245L46.5245 30.9878H50.0224V27.4898Z" fill="#9BCA4F"/>
<path d="M46.5245 30.9878H43.0265V34.4858H46.5245V30.9878Z" fill="#9BCA4F"/>
<path d="M50.0224 34.4858H46.5245V37.9838H50.0224V34.4858Z" fill="#9BCA4F"/>
<path d="M46.5245 37.9838H43.0265V41.4817H46.5245V37.9838Z" fill="#9BCA4F"/>
<path d="M50.0224 41.4817H46.5245V44.9797H50.0224V41.4817Z" fill="#9BCA4F"/>
<path d="M45.216 46.8608V47.3796L43.0643 51.081H45.2096L45.1392 51.6253H42.3663V51.113L44.518 47.3988H42.5776V46.8608H45.216Z" fill="#989898"/>
<path d="M46.6812 46.8608V51.6253H46.0408V46.8608H46.6812Z" fill="#989898"/>
<path d="M48.9365 46.8608C50.0636 46.8608 50.6975 47.3411 50.6975 48.3337C50.6975 49.4032 50.0059 49.8643 48.9621 49.8643H48.501V51.6253H47.8606V46.8608H48.9365ZM48.9365 49.3648C49.6217 49.3648 50.0251 49.1278 50.0251 48.3401C50.0251 47.6357 49.6537 47.3667 48.9429 47.3667H48.501V49.3648H48.9365Z" fill="#989898"/>
<g filter="url(#filter0_d_17_85)">
<path d="M53.4165 10V18.4419C53.4165 19.5896 54.3469 20.39 55.4945 20.39H63.8065L53.4165 10Z" fill="#D9D9D9"/>
<path d="M53.4665 18.4419V10.1207L63.6858 20.34H55.4945C54.3701 20.34 53.4665 19.5578 53.4665 18.4419Z" stroke="#AAAAAA" stroke-width="0.1"/>
</g>
<path d="M5.63 68.68C5.62 70.14 5.39 72.5 4.24 73.73C4.12 73.56 3.75 73.22 3.57 73.11C4.64 71.95 4.78 69.93 4.78 68.61V65.47C5.04 65.43 5.31 65.38 5.6 65.32L5.7 65.3C6.51 65.13 7.34 64.92 7.85 64.67L8.41 65.45C7.69 65.76 6.56 66.01 5.63 66.16V67.79H8.56V68.68H7.61V73.66H6.77V68.68H5.63ZM1.76 70.03C1.71 71.19 1.52 72.83 1.04 73.75C0.91 73.59 0.52 73.25 0.34 73.15C0.88 72.03 0.95 70.12 0.95 68.9V65.44C1.96 65.3 3.27 65.05 3.95 64.73L4.49 65.5C3.8 65.8 2.69 66.02 1.79 66.14V66.94H4.11V70.03H1.76ZM1.79 69.19H3.29V67.77H1.79V69.19ZM15.3039 67.82V71.8H14.3939V64.55H15.3039V67L15.5539 66.83C15.8139 67.16 16.1039 67.55 16.3939 67.95L16.4639 68.04C16.8439 68.57 17.1939 69.1 17.3939 69.48L16.6439 69.99C16.3739 69.44 15.7939 68.53 15.3039 67.82ZM12.0739 71.73C11.5539 72.55 10.8439 73.31 10.0239 73.77L9.50391 72.95C10.2339 72.58 10.9939 71.77 11.5339 70.91C11.2839 70.46 11.0639 69.84 10.8639 69.19L10.8339 69.08C10.8139 69 10.7839 68.91 10.7639 68.83C10.6039 69.19 10.4239 69.59 10.2239 69.87C10.1039 69.72 9.76391 69.46 9.55391 69.34C10.0939 68.57 10.5539 67.12 10.8339 65.62L10.8539 65.51C10.9139 65.2 10.9539 64.89 10.9939 64.58L11.8739 64.79C11.8039 65.2 11.7239 65.66 11.6439 66.06H12.9839L13.1139 66.02L13.7039 66.19C13.5239 68.05 13.0939 69.8 12.5339 70.93C13.4539 72.09 14.7539 72.47 15.9939 72.47H16.1239C16.2839 72.47 16.5239 72.47 16.7639 72.47H16.8839C17.1839 72.47 17.4739 72.46 17.6439 72.45C17.5139 72.68 17.3439 73.18 17.3039 73.43H15.9439C14.5339 73.43 13.1139 72.99 12.0739 71.73ZM11.2239 67.62C11.4239 68.57 11.6939 69.45 12.0039 70.04C12.3139 69.3 12.5639 68.28 12.7139 67.22L12.7339 67.11C12.7339 67.07 12.7439 67.04 12.7439 67L12.7639 66.89H11.4139C11.3539 67.14 11.2939 67.42 11.2239 67.62ZM23.8978 65.97C23.4478 66.9 22.7378 67.88 21.8178 68.58L21.2778 67.85C22.4978 66.96 23.2478 65.61 23.5378 64.49L24.4178 64.63C24.3778 64.77 24.3178 64.96 24.2678 65.11C24.7778 66.13 25.7578 67.17 26.6178 67.65L26.1178 68.42C25.3078 67.89 24.4578 66.96 23.8978 65.97ZM19.6578 65.78V73.72H18.8178V64.93H21.0378L21.1678 64.89L21.7378 65.28C21.6478 65.55 21.5278 65.85 21.4078 66.15L21.3678 66.24C21.3378 66.32 21.3078 66.4 21.2778 66.48L21.2378 66.58C21.0578 66.99 20.8878 67.39 20.7178 67.74C21.4378 68.49 21.6378 69.27 21.6478 69.84C21.6478 70.4 21.4878 70.88 21.2178 71.1C21.0578 71.19 20.8578 71.27 20.6678 71.3C20.4678 71.33 20.1878 71.33 19.8678 71.32L19.8778 70.49C19.9478 70.51 20.1678 70.51 20.3278 70.5C20.4478 70.49 20.5478 70.46 20.6178 70.4C20.7778 70.3 20.8278 70.03 20.8278 69.75C20.8278 69.27 20.6178 68.55 19.8878 67.85C20.1678 67.25 20.4678 66.39 20.6578 65.78H19.6578ZM25.3678 68.35V73.68H24.5178V68.35H25.3678ZM23.2978 69.81C23.2978 71.04 23.1278 72.72 22.0578 73.8L21.3678 73.15C22.3178 72.28 22.4578 70.85 22.4578 69.8V68.35H23.2978V69.81ZM28.9517 71.79V73.52H28.1317V71.94L27.5517 72.05L27.4217 71.18L28.1317 71.05V65.42L28.1517 65.43C28.9417 65.18 29.9417 64.78 30.4817 64.46L31.1417 65.15C30.5417 65.46 29.6717 65.76 28.9517 65.98V66.84H30.8417V67.64H28.9517V68.84H30.8317V69.65H28.9517V70.94C29.2317 70.9 29.5417 70.85 29.8617 70.8L29.9617 70.78C30.0117 70.77 30.0617 70.76 30.1117 70.75L30.2117 70.74C30.4617 70.69 30.7117 70.65 30.9517 70.61L30.9817 71.4C30.7217 71.45 30.4417 71.51 30.1617 71.56L30.0617 71.58L29.9617 71.6C29.6117 71.67 29.2617 71.73 28.9517 71.79ZM32.5617 66.09C32.5617 66.96 32.3117 68.14 31.4017 68.83C31.2917 68.67 30.9817 68.35 30.8117 68.23C31.6317 67.62 31.7617 66.75 31.7617 66.07V64.9H34.3817V67.27C34.3817 67.52 34.3917 67.62 34.6417 67.62H34.8717C35.1217 67.62 35.3417 67.62 35.3617 67.61L35.5917 68.24C35.4017 68.33 35.1917 68.33 35.0117 68.33H34.4317C33.7717 68.33 33.6017 67.98 33.6017 67.26V65.7H32.5617V66.09ZM33.1317 72.54C32.5317 73.04 31.7717 73.51 30.9517 73.78L30.6517 72.93C31.2917 72.76 32.0117 72.34 32.5517 71.91C32.1217 71.37 31.7517 70.56 31.4917 69.82L31.9317 69.7H31.1817V68.91H34.3517L34.4817 68.88L35.0117 69.08C34.7617 70.2 34.3017 71.26 33.7417 71.93C34.2317 72.33 34.9117 72.73 35.4717 72.87L35.1617 73.73C34.3517 73.48 33.6417 73 33.1317 72.54ZM32.1817 69.7C32.3917 70.27 32.7617 70.92 33.1517 71.36C33.5117 70.94 33.7917 70.3 34.0017 69.7H32.1817ZM38.8956 67.41V69.03H40.3556V69.82H38.8956V71.43H38.0556V69.82H36.5956V69.03H38.0556V67.41H38.8956ZM49.5475 71.52C49.4275 72.92 49.1275 73.49 47.6475 73.49H46.7475C45.1475 73.49 44.7875 73.07 44.7875 71.94V69.01L44.1975 69.3L43.8975 68.48L44.7875 68.05V65.45H45.5975V67.68L46.5475 67.22V64.55H47.3475V66.85L48.2775 66.4L48.4375 66.26L48.5875 66.13L49.1775 66.38L49.1475 66.54C49.1475 68.29 49.1275 69.75 49.0675 70.12C49.0275 70.52 48.8575 70.77 48.5875 70.84C48.3575 70.94 47.9675 70.95 47.6475 70.95L47.6075 70.18C47.6875 70.18 47.8375 70.18 47.9575 70.18H48.0775C48.1875 70.18 48.2375 70.12 48.2675 69.93C48.3075 69.75 48.3575 68.73 48.3575 67.3L47.3475 67.79V71.38H46.5475V68.15L45.5975 68.63V71.95C45.5975 72.48 45.6975 72.67 46.7675 72.67H47.6375C48.6275 72.67 48.7075 72.31 48.7775 71.39L49.5475 71.52ZM44.4075 70.7C44.1675 70.83 43.9175 70.96 43.6575 71.1L43.5575 71.15L43.4675 71.2C43.4575 71.21 43.4375 71.22 43.4275 71.23L43.1975 71.35C43.1575 71.37 43.1275 71.38 43.0975 71.4L43.0075 71.45L42.9175 71.5C42.4575 71.74 42.0175 71.97 41.6575 72.15L41.3475 71.21C41.6175 71.11 41.9775 70.93 42.3475 70.75L42.4475 70.7C42.4675 70.7 42.4775 70.69 42.4975 70.68V67.68H41.4075V66.81H42.4975V64.67H43.2975V66.81H44.2775V67.68H43.2975V70.33C43.5675 70.18 43.8975 70.02 44.2075 69.89L44.4075 70.7ZM55.6214 70.26C55.3414 71.49 54.6114 72.92 53.0414 73.77L52.5814 72.99C53.9614 72.26 54.6614 70.95 54.9014 69.83H53.3314V68.95H54.9914C55.0114 68.65 55.0414 68.28 55.0414 67.98V66.97H53.5814V66.11H55.0414V64.65H55.8514V66.11H57.8014V68.95H58.3914V69.83H56.2914C56.6814 71.12 57.4714 72.4 58.4814 72.86L57.9914 73.75C56.8614 73.13 56.0514 71.71 55.6214 70.26ZM53.4014 70.59C53.1614 70.72 52.9014 70.86 52.6414 71L52.5514 71.05C52.4914 71.08 52.4314 71.12 52.3714 71.15L52.2814 71.2L52.1414 71.27C51.6214 71.55 51.1114 71.82 50.7014 72.03L50.3814 71.08C50.7014 70.97 51.1014 70.76 51.5214 70.57V67.68H50.5114V66.81H51.5214V64.67H52.3114V66.81H53.2414V67.68H52.3114V70.21C52.4414 70.15 52.5914 70.07 52.7414 70L52.8314 69.96C52.9614 69.89 53.0814 69.84 53.1914 69.78L53.4014 70.59ZM55.8414 68.95H56.9914V66.97H55.8514V68.08C55.8514 68.36 55.8514 68.68 55.8414 68.95ZM67.0453 73.5C66.8853 73.62 66.6353 73.63 66.2753 73.63L66.2353 72.96C66.3153 72.96 66.4853 72.96 66.5353 72.96C66.5953 72.95 66.5953 72.91 66.5953 72.84V71.46H66.0953V73.38H65.5453V71.46H65.0753V73.4H64.5253V71.46H63.9653V73.62H63.3053V69.81C63.2053 71.05 62.9253 72.59 62.4053 73.56C62.2853 73.4 61.9253 73.11 61.7653 73.03C62.2453 72.12 62.4653 70.84 62.5653 69.66L62.5753 69.55C62.6353 68.84 62.6453 68.17 62.6453 67.64V65.54H64.6153C64.5253 65.29 64.4053 64.97 64.2953 64.74L65.0953 64.49C65.2653 64.81 65.4253 65.23 65.5253 65.54H67.1553V67.94H63.4153C63.4153 68.16 63.4253 68.43 63.4153 68.67H66.5953V68.66H67.2653V72.85C67.2653 73.14 67.2153 73.38 67.0453 73.5ZM62.0953 70.29C60.2553 70.77 59.8653 70.93 59.7553 71L59.4553 70.26C59.6253 70.22 59.8153 69.94 60.0653 69.59C60.1853 69.42 60.4853 68.93 60.7753 68.39C59.9853 68.51 59.7553 68.58 59.6853 68.62L59.3653 67.82C59.5153 67.78 59.6753 67.55 59.8353 67.24C60.0053 66.93 60.5953 65.65 60.8753 64.53L61.6553 64.83C61.4853 65.32 61.2853 65.84 61.0653 66.34L61.0153 66.43C60.8153 66.89 60.6053 67.32 60.3953 67.69L61.1753 67.6C61.3453 67.26 61.5353 66.85 61.6753 66.5L62.3353 66.92C62.0953 67.45 61.8153 68.04 61.5153 68.59L61.4653 68.68C61.2353 69.1 60.9953 69.5 60.7553 69.84L62.0353 69.55C62.0253 69.76 62.0553 70.11 62.0953 70.29ZM63.4153 67.19H66.3753V66.3H63.4153V67.19ZM63.9653 70.71H64.5253V69.42H63.9653V70.71ZM65.0753 70.71H65.0853H65.5453V69.42H65.0753V70.71ZM66.0953 70.71H66.5953V69.42H66.0953V70.71ZM62.1453 71.84C61.8953 71.96 61.6353 72.09 61.3653 72.22L61.2253 72.3L61.1253 72.34C61.1153 72.35 61.0953 72.36 61.0853 72.37L60.9853 72.41C60.9753 72.42 60.9553 72.43 60.9353 72.44L60.8453 72.49C60.3953 72.72 59.9553 72.94 59.6053 73.11L59.3953 72.25C59.8553 72.08 60.5353 71.76 61.2353 71.42L61.3353 71.37C61.5553 71.26 61.7653 71.15 61.9753 71.05L62.1453 71.84ZM71.3692 68V72.63H69.0792V69.79C68.9592 70.02 68.8092 70.27 68.6692 70.47C68.6292 70.24 68.4292 69.66 68.3192 69.42C68.8792 68.59 69.2992 67.17 69.5292 65.85H68.5092V65.02H71.5992V65.85H70.3092C70.1892 66.57 70.0192 67.34 69.8092 68H71.3692ZM74.9592 73.65C74.7392 73.68 74.2992 73.68 73.7892 73.64L73.7992 72.83C74.0592 72.87 74.4592 72.87 74.6192 72.87C74.7592 72.88 74.8392 72.84 74.9192 72.74C75.1292 72.52 75.3392 71.45 75.4792 69.56H72.2792V69.55H72.0492C72.1592 68.78 72.2892 67.34 72.3492 66.38L73.1592 66.44C73.0992 67.14 73.0292 68.07 72.9492 68.76H74.5192C74.5492 68.39 74.5992 67.97 74.6392 67.56L74.6492 67.45L74.6592 67.35L74.6692 67.24L74.6792 67.14C74.7192 66.69 74.7592 66.26 74.7892 65.9H71.9292V65.07H74.9292L75.0492 65.03L75.6592 65.1C75.6292 65.61 75.5692 66.25 75.4992 66.92L75.4892 67.02C75.4792 67.08 75.4792 67.13 75.4692 67.18L75.4492 67.34C75.3992 67.83 75.3492 68.32 75.2992 68.76H76.3492C76.3492 68.76 76.3292 69.04 76.3192 69.15C76.1392 71.64 75.9192 72.95 75.6192 73.3C75.4292 73.51 75.2292 73.62 74.9592 73.65ZM69.7992 71.8H70.6292V68.81H69.7992V71.8ZM74.9692 70.73V71.56H71.6892V70.73H74.9692ZM78.0931 71.75C78.5231 71.75 78.7931 72.07 78.7931 72.44C78.7931 72.82 78.5231 73.14 78.0931 73.14C77.7031 73.14 77.4131 72.82 77.4131 72.44C77.4131 72.07 77.7031 71.75 78.0931 71.75ZM83.2376 67.31V68.04L80.5576 72.2H83.2576L83.1576 73H79.4876V72.28L82.1776 68.12H79.7076V67.31H83.2376ZM84.8363 64.63C85.2263 64.63 85.4763 64.91 85.4763 65.28C85.4763 65.63 85.2263 65.9 84.8363 65.9C84.4463 65.9 84.1963 65.63 84.1963 65.28C84.1963 64.91 84.4463 64.63 84.8363 64.63ZM85.3263 67.31V73H84.3463V67.31H85.3263ZM89.5312 67.18C90.7812 67.18 91.3812 68.27 91.3812 70.14C91.3812 71.96 90.6812 73.14 89.4012 73.14C88.8212 73.14 88.3612 72.88 88.0412 72.45V75.17L87.0612 75.29V67.31H87.9212L87.9812 68.06C88.3612 67.5 88.8812 67.18 89.5312 67.18ZM89.1712 72.36C89.9312 72.36 90.3712 71.7 90.3712 70.15C90.3712 68.57 89.9912 67.95 89.2712 67.95C88.7212 67.95 88.3312 68.33 88.0412 68.8V71.66C88.3212 72.09 88.6912 72.36 89.1712 72.36Z" fill="#232323"/>
<path d="M228 7H224.182C221.636 7 220.364 8.72222 220.364 12.1667V32.8333C220.364 36.2778 219.091 38 216.545 38M216.545 38H214.636C213.364 38 214 38 216.545 38ZM216.545 38H218.455C219.727 38 220.364 39.7222 220.364 43.1667V63.8333C220.364 67.2778 221.636 69 224.182 69H228" stroke="#6F6F6F" stroke-width="0.8" stroke-miterlimit="10"/>
<defs>
<filter id="filter0_d_17_85" x="47.4165" y="8" width="18.39" height="18.39" filterUnits="userSpaceOnUse" color-interpolation-filters="sRGB">
<feFlood flood-opacity="0" result="BackgroundImageFix"/>
<feColorMatrix in="SourceAlpha" type="matrix" values="0 0 0 0 0 0 0 0 0 0 0 0 0 0 0 0 0 0 127 0" result="hardAlpha"/>
<feOffset dx="-2" dy="2"/>
<feGaussianBlur stdDeviation="2"/>
<feComposite in2="hardAlpha" operator="out"/>
<feColorMatrix type="matrix" values="0 0 0 0 0 0 0 0 0 0 0 0 0 0 0 0 0 0 0.25 0"/>
<feBlend mode="normal" in2="BackgroundImageFix" result="effect1_dropShadow_17_85"/>
<feBlend mode="normal" in="SourceGraphic" in2="effect1_dropShadow_17_85" result="shape"/>
</filter>
</defs>
</svg>
